<svg width="1969" height="1969" version="1.1" xmlns="http://www.w3.org/2000/svg" desc="Created with imagetracer.js version 1.2.6" ><path fill="rgb(0,0,0)" stroke="rgb(0,0,0)" stroke-width="1" opacity="0" d="M 0 0 L 1969 0 L 1969 1969 L 0 1969 L 0 0 Z M 126 378 L 126 380 L 142 388 L 265 463 L 263 476 L 257 498 L 257 504 L 251 526 L 249 541 L 242 568 L 242 574 L 236 596 L 234 611 L 228 633 L 227 644 L 221 666 L 221 672 L 213 703 L 213 709 L 207 731 L 206 742 L 202 755 L 198 779 L 192 801 L 192 807 Q 185 828 182 853 L 178 866 L 177 877 L 163 936 L 162 947 L 158 960 L 154 984 L 148 1006 L 148 1012 L 142 1034 L 140 1049 L 134 1072 L 133 1082 L 127 1104 L 126 1114 L 121 1132 L 117 1156 L 113 1169 L 112 1180 L 98 1239 L 97 1250 L 93 1263 L 89 1287 L 83 1309 L 83 1315 L 77 1337 L 75 1352 L 69 1374 L 68 1385 L 62 1407 L 62 1428 Q 65 1442 73 1452 Q 81 1462 93 1468 L 108 1473 L 286 1473 Q 301 1470 312 1461 Q 324 1451 330 1434 L 331 1425 L 338 1398 L 338 1392 L 345 1366 L 346 1355 L 352 1333 L 352 1327 L 358 1305 L 360 1290 L 366 1268 L 367 1257 L 371 1244 L 375 1220 L 381 1198 L 381 1192 L 387 1170 L 388 1159 L 402 1100 L 403 1089 L 410 1063 L 411 1052 L 417 1030 L 417 1024 L 423 1002 L 427 978 L 431 965 L 432 954 L 440 924 L 445 941 L 445 945 L 452 964 L 452 968 Q 459 984 463 1005 L 465 1008 L 467 1019 L 474 1038 L 475 1046 L 481 1062 L 481 1066 L 488 1086 L 489 1093 L 495 1109 L 497 1120 L 503 1136 L 503 1140 L 510 1160 L 510 1164 L 519 1186 L 526 1196 Q 536 1207 550 1215 L 568 1222 L 579 1223 L 580 1224 L 717 1224 L 718 1223 L 729 1222 L 745 1216 L 760 1206 L 770 1196 L 816 1139 Q 815 1136 818 1137 L 821 1132 L 881 1059 Q 880 1056 883 1057 L 962 958 L 966 955 L 960 978 L 958 993 L 952 1015 L 950 1030 L 944 1052 L 943 1063 L 938 1080 L 937 1091 L 931 1113 L 929 1128 L 923 1150 L 923 1155 L 916 1183 L 914 1198 L 908 1220 L 908 1226 L 902 1248 L 901 1259 L 894 1285 L 893 1296 L 887 1318 L 885 1333 L 879 1355 L 878 1366 L 874 1379 L 872 1394 L 868 1408 L 868 1427 L 869 1432 L 873 1443 L 879 1452 Q 887 1462 899 1468 L 914 1473 L 1092 1473 Q 1107 1470 1117 1461 L 1152 1470 L 1172 1472 L 1173 1473 L 1577 1473 L 1578 1472 L 1595 1471 L 1612 1467 L 1617 1467 L 1654 1456 Q 1690 1442 1718 1418 Q 1753 1387 1773 1341 L 1783 1306 L 1783 1301 L 1787 1288 L 1791 1266 L 1797 1245 L 1799 1231 L 1812 1178 L 1812 1173 L 1821 1139 L 1821 1124 L 1817 1109 L 1805 1091 Q 1793 1077 1772 1073 L 1562 1073 L 1550 1076 L 1533 1086 Q 1520 1096 1514 1114 L 1496 1190 L 1495 1199 L 1490 1215 L 1490 1217 L 1355 1217 L 1378 1122 L 1378 1117 L 1384 1097 L 1386 1083 L 1392 1063 L 1394 1050 L 1414 970 L 1421 936 L 1426 919 L 1426 915 L 1429 906 L 1429 901 L 1436 877 L 1438 864 L 1469 737 L 1476 700 L 1478 698 L 1610 699 L 1597 752 L 1597 771 L 1599 779 Q 1602 790 1609 798 Q 1622 814 1648 819 L 1856 819 L 1871 815 L 1887 805 Q 1899 795 1904 778 L 1907 761 L 1915 731 L 1916 722 L 1928 675 L 1928 670 L 1935 645 L 1937 632 L 1949 583 L 1949 542 L 1943 516 Q 1934 487 1915 468 Q 1896 449 1871 437 L 1834 426 L 1817 423 L 1799 422 L 1798 421 L 1347 421 Q 1344 408 1336 399 L 1321 385 L 1302 378 L 1108 378 Q 1090 382 1079 392 L 950 550 Q 951 552 948 551 L 924 583 L 704 853 L 702 856 L 698 858 L 692 839 L 692 835 L 685 816 L 684 808 L 678 792 L 675 778 L 670 765 L 670 761 L 664 745 L 662 734 L 656 718 L 653 704 L 651 701 L 648 687 L 642 671 L 641 663 L 634 644 L 634 640 L 627 620 L 627 616 L 621 600 L 619 589 L 612 570 L 612 566 L 605 546 L 605 542 L 591 499 L 591 495 L 585 479 L 583 468 L 569 425 L 569 421 L 563 407 L 553 393 L 538 383 L 523 378 L 126 378 Z M 507 1522 L 498 1524 L 483 1532 L 478 1539 L 473 1552 Q 470 1572 479 1582 L 493 1592 L 522 1600 Q 525 1599 524 1602 L 519 1604 L 503 1602 L 486 1594 L 478 1595 L 474 1600 L 474 1627 L 481 1632 L 495 1636 L 508 1637 L 509 1638 L 529 1638 Q 530 1636 536 1637 Q 545 1635 552 1630 L 559 1623 L 563 1615 L 565 1605 L 564 1587 L 558 1576 Q 551 1568 540 1564 L 519 1560 L 513 1558 L 517 1556 Q 535 1556 547 1563 Q 554 1564 557 1561 L 559 1557 L 559 1534 L 557 1529 L 552 1526 L 537 1523 Q 530 1525 529 1522 L 507 1522 Z M 156 1524 L 154 1525 L 150 1530 L 150 1631 L 151 1633 L 156 1636 L 185 1636 L 187 1635 L 190 1631 L 191 1600 L 196 1614 L 201 1617 L 223 1617 L 225 1616 Q 231 1609 234 1598 L 234 1632 L 239 1636 L 269 1636 L 273 1632 L 273 1529 L 269 1524 L 231 1524 L 229 1525 L 225 1530 L 212 1561 L 198 1529 L 194 1524 L 156 1524 Z M 357 1524 L 355 1525 L 351 1530 L 316 1625 L 317 1633 L 322 1636 L 353 1636 L 357 1632 L 361 1621 L 362 1618 L 388 1618 L 391 1630 L 397 1636 L 428 1636 L 430 1635 L 433 1631 L 433 1625 L 397 1529 L 393 1524 L 357 1524 Z M 611 1524 L 609 1525 L 605 1530 L 605 1553 L 606 1555 L 611 1558 L 637 1558 L 637 1631 L 638 1633 L 643 1636 L 673 1636 L 675 1635 L 678 1631 L 678 1558 L 705 1558 L 707 1557 L 710 1553 L 710 1530 L 709 1528 L 705 1524 L 611 1524 Z M 758 1524 L 753 1529 L 753 1632 L 758 1636 L 833 1636 L 837 1632 L 837 1607 L 836 1605 L 832 1601 L 794 1601 L 793 1601 L 793 1595 L 829 1595 L 833 1591 L 833 1566 L 829 1561 L 794 1561 L 793 1558 L 830 1558 L 834 1556 L 836 1552 L 836 1531 L 834 1526 L 830 1524 L 758 1524 Z M 894 1524 L 889 1529 L 889 1632 L 894 1636 L 925 1636 L 929 1632 L 929 1600 L 934 1601 L 937 1606 L 948 1630 L 954 1636 L 987 1636 L 991 1632 L 991 1624 L 974 1590 L 969 1584 Q 977 1578 979 1568 L 979 1549 L 974 1538 Q 967 1528 955 1525 Q 949 1527 948 1524 L 894 1524 Z M 1153 1530 L 1142 1533 L 1131 1539 L 1119 1552 L 1114 1563 L 1112 1574 L 1112 1587 L 1114 1598 L 1122 1613 L 1136 1624 L 1145 1628 L 1155 1630 L 1174 1630 Q 1175 1628 1180 1629 Q 1189 1627 1195 1623 L 1195 1602 L 1180 1610 L 1168 1611 L 1167 1612 L 1156 1610 L 1151 1607 Q 1141 1601 1139 1588 L 1139 1573 L 1144 1560 L 1151 1553 L 1160 1549 Q 1165 1551 1167 1548 L 1168 1549 L 1180 1550 L 1194 1557 L 1195 1557 L 1195 1538 Q 1189 1533 1181 1531 Q 1176 1532 1175 1530 L 1153 1530 Z M 1294 1530 L 1283 1533 L 1268 1542 L 1260 1554 L 1255 1572 L 1255 1589 Q 1257 1590 1256 1595 Q 1258 1605 1264 1613 Q 1274 1627 1295 1630 Q 1323 1633 1338 1621 L 1348 1610 L 1353 1598 L 1355 1587 L 1354 1567 L 1352 1559 L 1346 1548 Q 1338 1535 1322 1531 L 1317 1530 L 1294 1530 Z M 1419 1531 L 1419 1628 L 1466 1628 Q 1467 1626 1473 1627 Q 1486 1625 1495 1617 Q 1502 1611 1506 1603 L 1510 1589 Q 1512 1562 1501 1550 Q 1492 1537 1474 1533 L 1455 1532 L 1454 1531 L 1419 1531 Z M 1574 1531 L 1574 1628 L 1644 1628 L 1644 1611 L 1643 1609 L 1600 1609 L 1600 1588 L 1639 1588 L 1640 1587 L 1640 1568 L 1600 1568 L 1600 1551 L 1642 1551 L 1642 1532 L 1642 1531 L 1574 1531 Z " /><path fill="rgb(0,0,0)" stroke="rgb(0,0,0)" stroke-width="1" opacity="0" d="M 1304.5 1548 L 1314.5 1550 L 1322 1556.5 L 1326 1563.5 L 1328 1571.5 L 1328 1588.5 L 1324 1600.5 L 1318.5 1607 Q 1312.8 1612.8 1299.5 1611 Q 1291.2 1608.9 1287 1602.5 Q 1279.4 1591.6 1282 1570.5 Q 1284 1558 1292.5 1552 L 1295.5 1550 L 1304.5 1548 Z " /><path fill="rgb(0,0,0)" stroke="rgb(0,0,0)" stroke-width="1" opacity="0" d="M 1444 1551 L 1464.5 1552 Q 1473 1554.5 1478 1560.5 L 1482 1567.5 L 1484 1580.5 L 1482 1591.5 Q 1479.1 1599.6 1472.5 1604 L 1462.5 1608 L 1444 1609 L 1444 1551 Z " /><path fill="rgb(0,0,0)" stroke="rgb(0,0,0)" stroke-width="1" opacity="0" d="M 929 1558 Q 935.2 1557.1 938 1559 L 938 1564.5 L 936.5 1565 L 929.5 1567 L 929 1558 Z " /><path fill="rgb(0,0,0)" stroke="rgb(0,0,0)" stroke-width="1" opacity="0" d="M 374.5 1581 L 376 1584.5 L 373 1585 L 374.5 1581 Z " /><path fill="rgb(254,254,254)" stroke="rgb(254,254,254)" stroke-width="1" opacity="0.9764705882352941" d="M 1347.5 421 L 1797.5 421 L 1798.5 422 L 1816.5 423 L 1833.5 426 L 1870.5 437 Q 1896.5 448.5 1915 467.5 Q 1933.7 486.8 1943 515.5 L 1949 541.5 L 1949 582.5 L 1937 631.5 L 1935 644.5 L 1928 669.5 L 1928 674.5 L 1916 721.5 L 1915 730.5 L 1907 760.5 L 1904 777.5 Q 1898.7 794.7 1886.5 805 L 1870.5 815 L 1855.5 819 L 1647.5 819 Q 1622 814.5 1609 797.5 Q 1602.3 789.7 1599 778.5 L 1597 770.5 L 1597 751.5 L 1610 698.5 L 1477.5 698 L 1476 699.5 L 1469 736.5 L 1438 863.5 L 1436 876.5 L 1429 900.5 L 1429 905.5 L 1426 914.5 L 1426 918.5 L 1421 935.5 L 1414 969.5 L 1394 1049.5 L 1392 1062.5 L 1386 1082.5 L 1384 1096.5 L 1378 1116.5 L 1378 1121.5 L 1355 1217 L 1489.5 1217 L 1490 1214.5 L 1495 1198.5 L 1496 1189.5 L 1514 1113.5 Q 1519.7 1096.2 1532.5 1086 L 1549.5 1076 L 1561.5 1073 L 1771.5 1073 Q 1792.8 1077.2 1805 1090.5 L 1817 1108.5 L 1821 1123.5 L 1821 1138.5 L 1812 1172.5 L 1812 1177.5 L 1799 1230.5 L 1797 1244.5 L 1791 1265.5 L 1787 1287.5 L 1783 1300.5 L 1783 1305.5 L 1773 1340.5 Q 1753.2 1387.2 1717.5 1418 Q 1690.4 1441.9 1653.5 1456 L 1616.5 1467 L 1611.5 1467 L 1594.5 1471 L 1577.5 1472 L 1576.5 1473 L 1172.5 1473 L 1171.5 1472 L 1151.5 1470 L 1125.5 1464 L 1114.5 1459 L 1102.5 1456 L 1076.5 1443 L 1069.5 1447 L 1052.5 1452 L 1032.5 1453 Q 1030.7 1450.3 1024.5 1452 L 1007.5 1447 Q 990.4 1439.6 979 1426.5 Q 970.4 1417.1 965 1404.5 L 960 1387.5 L 959 1367.5 Q 961.8 1365.8 960 1359.5 L 965 1342.5 Q 972.6 1325.6 985.5 1314 Q 1001.2 1299.3 1026 1295 L 1027 1285.5 L 1040 1234.5 Q 1042.2 1215.2 1048 1199.5 L 1048 1194.5 L 1056 1164.5 L 1056 1159.5 L 1062 1138.5 L 1068 1108.5 L 1070 1104.5 L 1070 1099.5 L 1074 1086.5 L 1077 1068.5 L 1092 1008.5 L 1092 1003.5 L 1099 977.5 L 1099 972.5 L 1105 952.5 L 1108 933.5 L 1113 917.5 L 1114 907.5 L 1126 860.5 L 1128 846.5 L 1135 821.5 L 1135 816.5 L 1148 764.5 L 1151 746.5 L 1157 726.5 L 1157 721.5 L 1169 673.5 L 1172 654.5 L 1178 634.5 L 1178 628.5 L 1182 615.5 L 1182 611.5 L 1186 598.5 L 1186 593.5 L 1193 567.5 L 1193 562.5 L 1202 527.5 L 1090.5 461 L 1084 455.5 L 1081 451.5 L 1079 440.5 L 1081 432.5 L 1085.5 427 L 1089.5 424 L 1097.5 422 L 1346.5 422 L 1347.5 421 Z M 1101 442 L 1103 445 L 1219 513 L 1224 518 L 1207 591 L 1207 595 L 1204 604 L 1204 608 L 1201 617 L 1200 626 L 1196 639 L 1192 661 L 1189 670 L 1187 683 L 1183 696 L 1179 718 L 1175 731 L 1170 757 L 1166 770 L 1165 779 L 1161 792 L 1156 818 L 1152 831 L 1147 857 L 1140 883 L 1136 905 L 1131 922 L 1130 931 L 1123 957 L 1121 970 L 1118 979 L 1113 1005 L 1109 1018 L 1104 1044 L 1097 1070 L 1095 1083 L 1088 1109 L 1084 1131 L 1080 1144 L 1078 1157 L 1075 1166 L 1075 1170 L 1072 1179 L 1072 1183 L 1069 1192 L 1069 1196 L 1066 1205 L 1066 1209 L 1063 1218 L 1063 1222 L 1060 1231 L 1060 1235 L 1046 1294 L 1048 1295 L 1054 1295 L 1068 1299 Q 1081 1304 1091 1313 Q 1100 1321 1107 1333 L 1115 1351 L 1118 1366 L 1118 1382 L 1113 1403 Q 1107 1419 1095 1430 L 1112 1438 L 1134 1445 L 1157 1450 L 1171 1451 L 1172 1452 L 1182 1452 L 1183 1453 L 1562 1453 L 1563 1452 L 1588 1451 L 1628 1443 L 1651 1435 Q 1681 1422 1705 1402 Q 1737 1373 1755 1330 L 1761 1310 L 1768 1275 L 1772 1262 L 1776 1240 L 1780 1227 L 1781 1218 L 1785 1205 L 1789 1183 L 1800 1138 L 1800 1124 L 1794 1110 Q 1786 1098 1771 1094 L 1562 1094 L 1547 1101 Q 1537 1108 1533 1122 L 1518 1186 L 1518 1190 L 1506 1237 L 1506 1238 L 1329 1238 L 1365 1088 L 1365 1084 L 1370 1067 L 1370 1063 L 1375 1046 L 1378 1029 L 1380 1025 L 1383 1008 L 1392 974 L 1392 970 L 1397 953 L 1405 915 L 1410 898 L 1418 860 L 1423 843 L 1427 822 L 1432 805 L 1435 788 L 1449 733 L 1460 679 L 1461 677 L 1635 677 L 1617 758 L 1618 771 L 1625 785 Q 1633 794 1647 798 L 1857 798 Q 1867 795 1874 789 Q 1881 783 1884 773 L 1893 731 L 1897 718 L 1897 714 L 1901 701 L 1905 679 L 1919 623 L 1919 619 L 1926 593 L 1928 575 L 1929 574 L 1929 551 L 1924 524 Q 1916 498 1899 481 Q 1882 464 1858 454 L 1843 449 L 1824 445 L 1809 444 L 1808 443 L 1794 443 L 1793 442 L 1101 442 Z M 1029 1304 Q 1008 1308 995 1319 Q 983 1328 976 1342 L 969 1364 L 969 1384 Q 971 1385 970 1390 Q 974 1406 984 1418 Q 999 1438 1029 1443 L 1049 1443 Q 1050 1441 1055 1442 Q 1071 1438 1083 1428 Q 1103 1413 1108 1384 L 1108 1364 Q 1106 1362 1107 1358 Q 1103 1341 1093 1330 Q 1082 1315 1064 1308 L 1049 1304 L 1029 1304 Z " /><path fill="rgb(254,254,254)" stroke="rgb(254,254,254)" stroke-width="1" opacity="0.9764705882352941" d="M 1046 1350 L 1054.5 1350 L 1055 1351.5 L 1033 1405 L 1024.5 1405 L 1024 1403.5 L 1046 1350 Z " /><path fill="rgb(254,254,254)" stroke="rgb(254,254,254)" stroke-width="1" opacity="0.9764705882352941" d="M 1014.5 1361 L 1015 1369 L 994 1377 Q 992.9 1379.7 995.5 1379 L 1015 1387.5 Q 1016.5 1394.5 1013.5 1394 L 985 1381 L 985 1375.5 L 986.5 1375 L 1014.5 1361 Z " /><path fill="rgb(254,254,254)" stroke="rgb(254,254,254)" stroke-width="1" opacity="0.9764705882352941" d="M 1065.5 1361 L 1095 1375.5 Q 1096.3 1381.6 1093.5 1381 L 1065.5 1394 L 1065 1387.5 L 1068.5 1385 L 1086 1379 Q 1087.1 1376.3 1084.5 1377 L 1065 1369 L 1065.5 1361 Z " /><path fill="rgb(254,254,254)" stroke="rgb(254,254,254)" stroke-width="1" opacity="0.9764705882352941" d="M 506.5 1522 L 528.5 1522 Q 530.3 1524.8 536.5 1523 L 551.5 1526 L 557 1529 L 559 1533.5 L 559 1556.5 L 557 1561 Q 554.1 1563.9 546.5 1563 Q 535.3 1555.7 516.5 1556 L 513 1557.5 L 518.5 1560 L 539.5 1564 Q 550.8 1567.7 558 1575.5 L 564 1586.5 L 565 1604.5 L 563 1614.5 L 559 1622.5 L 551.5 1630 Q 545.1 1635.1 535.5 1637 Q 530 1635.5 528.5 1638 L 508.5 1638 L 507.5 1637 L 494.5 1636 L 480.5 1632 L 474 1626.5 L 474 1599.5 L 477.5 1595 L 485.5 1594 L 502.5 1602 L 518.5 1604 L 524 1601.5 Q 524.8 1598.9 521.5 1600 L 492.5 1592 L 479 1581.5 Q 470.3 1572.2 473 1551.5 L 478 1538.5 L 483 1532 L 497.5 1524 L 506.5 1522 Z M 510 1530 L 501 1532 L 489 1538 L 485 1544 L 481 1554 Q 479 1569 486 1577 Q 492 1583 501 1586 L 524 1591 L 530 1594 L 533 1600 Q 534 1605 531 1608 L 522 1612 L 512 1612 L 501 1610 L 483 1602 L 482 1623 L 490 1626 L 510 1630 L 527 1630 Q 528 1628 533 1629 L 547 1623 L 552 1618 L 556 1609 Q 555 1604 557 1603 Q 558 1588 551 1581 L 546 1576 L 537 1572 L 512 1567 L 508 1565 L 504 1562 L 503 1558 L 505 1553 L 514 1548 Q 536 1547 550 1555 L 551 1555 L 551 1535 L 535 1531 L 510 1530 Z " /><path fill="rgb(254,254,254)" stroke="rgb(254,254,254)" stroke-width="1" opacity="0.9764705882352941" d="M 155.5 1524 L 193.5 1524 L 198 1528.5 L 211.5 1561 L 225 1529.5 L 228.5 1525 L 230.5 1524 L 268.5 1524 L 273 1528.5 L 273 1631.5 L 268.5 1636 L 238.5 1636 L 234 1631.5 L 233.5 1598 Q 230.7 1608.7 224.5 1616 L 222.5 1617 L 200.5 1617 L 196 1613.5 L 190.5 1600 L 190 1630.5 L 186.5 1635 L 184.5 1636 L 155.5 1636 L 151 1632.5 L 150 1630.5 L 150 1529.5 L 153.5 1525 L 155.5 1524 Z M 158 1532 L 158 1628 L 159 1628 L 182 1628 L 183 1560 L 203 1609 L 205 1610 L 219 1610 L 223 1603 L 240 1561 L 242 1560 L 242 1628 L 243 1628 L 265 1628 L 265 1532 L 233 1532 L 212 1583 L 190 1534 L 190 1532 L 158 1532 Z " /><path fill="rgb(254,254,254)" stroke="rgb(254,254,254)" stroke-width="1" opacity="0.9764705882352941" d="M 356.5 1524 L 392.5 1524 L 397 1528.5 L 433 1624.5 L 433 1630.5 L 429.5 1635 L 427.5 1636 L 396.5 1636 L 391 1629.5 L 388 1618 L 361.5 1618 L 361 1620.5 L 357 1631.5 L 352.5 1636 L 321.5 1636 L 317 1632.5 L 316 1624.5 L 351 1529.5 L 354.5 1525 L 356.5 1524 Z M 359 1532 L 324 1627 L 325 1628 L 349 1628 L 354 1613 L 356 1611 L 394 1611 L 401 1628 L 425 1628 L 390 1534 L 389 1532 L 359 1532 Z " /><path fill="rgb(254,254,254)" stroke="rgb(254,254,254)" stroke-width="1" opacity="0.9764705882352941" d="M 610.5 1524 L 704.5 1524 L 709 1527.5 L 710 1529.5 L 710 1552.5 L 706.5 1557 L 704.5 1558 L 678 1558 L 678 1630.5 L 674.5 1635 L 672.5 1636 L 642.5 1636 L 638 1632.5 L 637 1630.5 L 637 1558 L 610.5 1558 L 606 1554.5 L 605 1552.5 L 605 1529.5 L 608.5 1525 L 610.5 1524 Z M 613 1532 L 613 1550 L 615 1551 L 645 1551 L 645 1628 L 670 1628 L 670 1628 L 670 1551 L 701 1551 L 702 1550 L 702 1533 L 702 1532 L 613 1532 Z " /><path fill="rgb(254,254,254)" stroke="rgb(254,254,254)" stroke-width="1" opacity="0.9764705882352941" d="M 757.5 1524 L 829.5 1524 L 834 1526 L 836 1530.5 L 836 1551.5 L 834 1556 L 829.5 1558 L 793 1558 L 793.5 1561 L 828.5 1561 L 833 1565.5 L 833 1590.5 L 828.5 1595 L 793 1595 L 793 1600.5 L 793.5 1601 L 831.5 1601 L 836 1604.5 L 837 1606.5 L 837 1631.5 L 832.5 1636 L 757.5 1636 L 753 1631.5 L 753 1528.5 L 757.5 1524 Z M 761 1532 L 761 1628 L 829 1628 L 829 1609 L 785 1609 L 785 1589 L 787 1587 L 825 1587 L 825 1568 L 785 1568 L 785 1551 L 827 1551 L 828 1550 L 828 1533 L 828 1532 L 761 1532 Z " /><path fill="rgb(254,254,254)" stroke="rgb(254,254,254)" stroke-width="1" opacity="0.9764705882352941" d="M 893.5 1524 L 947.5 1524 Q 949 1526.5 954.5 1525 Q 967.2 1528.3 974 1537.5 L 979 1548.5 L 979 1567.5 Q 976.8 1578.3 969 1583.5 L 974 1589.5 L 991 1623.5 L 991 1631.5 L 986.5 1636 L 953.5 1636 L 948 1629.5 L 937 1605.5 L 933.5 1601 L 929 1600 L 929 1631.5 L 924.5 1636 L 893.5 1636 L 889 1631.5 L 889 1528.5 L 893.5 1524 Z M 897 1532 L 897 1628 L 922 1628 L 922 1592 L 935 1592 L 940 1595 L 945 1603 L 956 1627 L 958 1628 L 983 1628 L 965 1592 L 956 1584 Q 953 1585 954 1582 L 962 1579 Q 969 1574 971 1565 Q 973 1550 967 1543 Q 962 1535 952 1533 Q 946 1535 945 1532 L 897 1532 Z " /><path fill="rgb(254,254,254)" stroke="rgb(254,254,254)" stroke-width="1" opacity="0.9764705882352941" d="M 922 1550 L 937.5 1550 L 941.5 1551 L 945 1554.5 L 946 1556.5 L 946 1567.5 L 942.5 1572 L 938.5 1574 L 922 1574 L 922 1550 Z M 929 1558 L 930 1567 L 937 1565 L 938 1565 L 938 1559 Q 935 1557 929 1558 Z " /><path fill="rgb(254,254,254)" stroke="rgb(254,254,254)" stroke-width="1" opacity="0.9764705882352941" d="M 374.5 1555 L 387 1592 L 362.5 1592 L 362 1589.5 L 374.5 1555 Z M 375 1581 L 373 1585 L 376 1585 L 375 1581 Z " /><path fill="rgb(251,254,0)" stroke="rgb(251,254,0)" stroke-width="1" opacity="0.996078431372549" d="M 1101.5 421 L 1241 421.5 L 1101.5 422 L 1101.5 421 Z " /><path fill="rgb(251,254,0)" stroke="rgb(251,254,0)" stroke-width="1" opacity="0.996078431372549" d="M 981.5 1429 L 982.5 1431 L 981.5 1429 Z " /><path fill="rgb(251,254,0)" stroke="rgb(251,254,0)" stroke-width="1" opacity="0.996078431372549" d="M 1299.5 1530 L 1302 1530.5 L 1299.5 1531 L 1299.5 1530 Z " /><path fill="rgb(251,254,0)" stroke="rgb(251,254,0)" stroke-width="1" opacity="0.996078431372549" d="M 1420.5 1531 L 1445 1531.5 L 1420.5 1532 L 1420.5 1531 Z " /><path fill="rgb(251,254,0)" stroke="rgb(251,254,0)" stroke-width="1" opacity="0.996078431372549" d="M 1575.5 1531 L 1641 1531.5 L 1575.5 1532 L 1575.5 1531 Z " /><path fill="rgb(251,254,0)" stroke="rgb(251,254,0)" stroke-width="1" opacity="0.996078431372549" d="M 1274.5 1538 L 1273.5 1540 L 1274.5 1538 Z " /><path fill="rgb(251,254,0)" stroke="rgb(251,254,0)" stroke-width="1" opacity="0.996078431372549" d="M 1122.5 1548 L 1121.5 1550 L 1122.5 1548 Z " /><path fill="rgb(251,254,0)" stroke="rgb(251,254,0)" stroke-width="1" opacity="0.996078431372549" d="M 1264.5 1548 L 1263.5 1550 L 1264.5 1548 Z " /><path fill="rgb(251,254,0)" stroke="rgb(251,254,0)" stroke-width="1" opacity="0.996078431372549" d="M 1444.5 1550 L 1454 1550.5 L 1444.5 1551 L 1444.5 1550 Z " /><path fill="rgb(251,254,0)" stroke="rgb(251,254,0)" stroke-width="1" opacity="0.996078431372549" d="M 1600.5 1550 L 1641 1550.5 L 1600.5 1551 L 1600.5 1550 Z " /><path fill="rgb(251,254,0)" stroke="rgb(251,254,0)" stroke-width="1" opacity="0.996078431372549" d="M 1290.5 1552 L 1289.5 1554 L 1290.5 1552 Z " /><path fill="rgb(251,254,0)" stroke="rgb(251,254,0)" stroke-width="1" opacity="0.996078431372549" d="M 1467.5 1552 L 1468.5 1554 L 1467.5 1552 Z " /><path fill="rgb(251,254,0)" stroke="rgb(251,254,0)" stroke-width="1" opacity="0.996078431372549" d="M 1146.5 1555 L 1145.5 1557 L 1146.5 1555 Z " /><path fill="rgb(251,254,0)" stroke="rgb(251,254,0)" stroke-width="1" opacity="0.996078431372549" d="M 1474.5 1556 L 1475.5 1558 L 1474.5 1556 Z " /><path fill="rgb(251,254,0)" stroke="rgb(251,254,0)" stroke-width="1" opacity="0.996078431372549" d="M 1114.5 1563 L 1115 1565.5 L 1114 1565.5 L 1114.5 1563 Z " /><path fill="rgb(251,254,0)" stroke="rgb(251,254,0)" stroke-width="1" opacity="0.996078431372549" d="M 1480.5 1563 L 1482 1566.5 L 1481 1566.5 L 1480.5 1563 Z " /><path fill="rgb(251,254,0)" stroke="rgb(251,254,0)" stroke-width="1" opacity="0.996078431372549" d="M 1600.5 1568 L 1639 1568.5 L 1600.5 1569 L 1600.5 1568 Z " /><path fill="rgb(251,254,0)" stroke="rgb(251,254,0)" stroke-width="1" opacity="0.996078431372549" d="M 1600.5 1587 L 1639 1587.5 L 1600.5 1588 L 1600.5 1587 Z " /><path fill="rgb(251,254,0)" stroke="rgb(251,254,0)" stroke-width="1" opacity="0.996078431372549" d="M 1114.5 1594 L 1115 1596.5 L 1114 1596.5 L 1114.5 1594 Z " /><path fill="rgb(251,254,0)" stroke="rgb(251,254,0)" stroke-width="1" opacity="0.996078431372549" d="M 1506.5 1599 L 1505.5 1601 L 1506.5 1599 Z " /><path fill="rgb(251,254,0)" stroke="rgb(251,254,0)" stroke-width="1" opacity="0.996078431372549" d="M 1476.5 1601 L 1475.5 1603 L 1476.5 1601 Z " /><path fill="rgb(251,254,0)" stroke="rgb(251,254,0)" stroke-width="1" opacity="0.996078431372549" d="M 1145.5 1603 L 1146.5 1605 L 1145.5 1603 Z " /><path fill="rgb(251,254,0)" stroke="rgb(251,254,0)" stroke-width="1" opacity="0.996078431372549" d="M 1319.5 1606 L 1317.5 1609 L 1319.5 1606 Z " /><path fill="rgb(251,254,0)" stroke="rgb(251,254,0)" stroke-width="1" opacity="0.996078431372549" d="M 1120.5 1609 L 1122.5 1612 L 1120.5 1609 Z " /><path fill="rgb(251,254,0)" stroke="rgb(251,254,0)" stroke-width="1" opacity="0.996078431372549" d="M 1444.5 1609 L 1454 1609.5 L 1444.5 1610 L 1444.5 1609 Z " /><path fill="rgb(251,254,0)" stroke="rgb(251,254,0)" stroke-width="1" opacity="0.996078431372549" d="M 1600.5 1609 L 1643 1609.5 L 1600.5 1610 L 1600.5 1609 Z " /><path fill="rgb(251,254,0)" stroke="rgb(251,254,0)" stroke-width="1" opacity="0.996078431372549" d="M 1499.5 1610 L 1498.5 1612 L 1499.5 1610 Z " /><path fill="rgb(251,254,0)" stroke="rgb(251,254,0)" stroke-width="1" opacity="0.996078431372549" d="M 1492.5 1617 L 1491.5 1619 L 1492.5 1617 Z " /><path fill="rgb(251,254,0)" stroke="rgb(251,254,0)" stroke-width="1" opacity="0.996078431372549" d="M 1130.5 1619 L 1131.5 1621 L 1130.5 1619 Z " /><path fill="rgb(251,254,0)" stroke="rgb(251,254,0)" stroke-width="1" opacity="0.996078431372549" d="M 1159.5 1629 L 1165 1629.5 L 1159.5 1630 L 1159.5 1629 Z " /><path fill="rgb(252,255,0)" stroke="rgb(252,255,0)" stroke-width="1" opacity="1" d="M 126 378 L 522.5 378 L 537.5 383 L 553 393 L 563 406.5 L 569 420.5 L 569 424.5 L 583 467.5 L 585 478.5 L 591 494.5 L 591 498.5 L 605 541.5 L 605 545.5 L 612 565.5 L 612 569.5 L 619 588.5 L 621 599.5 L 627 615.5 L 627 619.5 L 634 639.5 L 634 643.5 L 641 662.5 L 642 670.5 L 648 686.5 L 651 700.5 L 653 703.5 L 656 717.5 L 662 733.5 L 664 744.5 L 670 760.5 L 670 764.5 L 675 777.5 L 678 791.5 L 684 807.5 L 685 815.5 L 692 834.5 L 692 838.5 L 698 858 L 702 855.5 L 704 852.5 L 924 582.5 L 948 551 Q 950.7 552.1 950 549.5 L 1078.5 392 Q 1089.8 381.8 1107.5 378 L 1301.5 378 L 1320.5 385 L 1336 398.5 Q 1344.1 407.9 1347 421 L 1099.5 421 Q 1096.6 423.6 1090.5 423 L 1084 427 L 1080 433.5 L 1079 446.5 Q 1080.5 454.1 1085.5 458 L 1201 527.5 L 1194 555.5 L 1191 573.5 L 1187 586.5 L 1186 595.5 L 1179 621.5 L 1178 631.5 L 1173 647.5 L 1169 670.5 L 1164 687.5 L 1164 692.5 L 1162 696.5 L 1160 709.5 L 1157 718.5 L 1156 727.5 L 1152 739.5 L 1147 766.5 L 1144 774.5 L 1135 818.5 L 1121 874.5 L 1121 879.5 L 1115 900.5 L 1113 914.5 L 1109 926.5 L 1109 930.5 L 1105 944.5 L 1105 949.5 L 1100 965.5 L 1092 1005.5 L 1086 1026.5 L 1083 1044.5 L 1078 1061.5 L 1074 1083.5 L 1070 1096.5 L 1070 1101.5 L 1066 1113.5 L 1061 1140.5 L 1057 1152.5 L 1056 1161.5 L 1049 1187.5 L 1048 1196.5 L 1044 1209.5 L 1040 1231.5 L 1035 1248.5 L 1032 1266.5 L 1029 1274.5 L 1025 1295 Q 1009.6 1296.9 998.5 1304 L 981 1317 L 969 1333.5 L 961 1352.5 L 959 1361.5 L 959 1385.5 Q 964.8 1414.2 982.5 1431 Q 996.4 1444.6 1017.5 1451 L 1026.5 1453 L 1050.5 1453 L 1068.5 1448 L 1075.5 1444 L 1078.5 1444 Q 1094.4 1455.4 1116 1460 L 1114.5 1463 Q 1105.3 1470.3 1091.5 1473 L 913.5 1473 L 898.5 1468 Q 887 1461.6 879 1451.5 L 873 1442.5 L 869 1431.5 L 868 1426.5 L 868 1407.5 L 872 1393.5 L 874 1378.5 L 878 1365.5 L 879 1354.5 L 885 1332.5 L 887 1317.5 L 893 1295.5 L 894 1284.5 L 901 1258.5 L 902 1247.5 L 908 1225.5 L 908 1219.5 L 914 1197.5 L 916 1182.5 L 923 1154.5 L 923 1149.5 L 929 1127.5 L 931 1112.5 L 937 1090.5 L 938 1079.5 L 943 1062.5 L 944 1051.5 L 950 1029.5 L 952 1014.5 L 958 992.5 L 960 977.5 L 966 954.5 L 962 957.5 L 883 1057 Q 880.3 1055.9 881 1058.5 L 821 1131.5 L 818 1137 Q 815.3 1135.9 816 1138.5 L 770 1195.5 L 759.5 1206 L 744.5 1216 L 728.5 1222 L 717.5 1223 L 716.5 1224 L 579.5 1224 L 578.5 1223 L 567.5 1222 L 549.5 1215 Q 535.8 1207.2 526 1195.5 L 519 1185.5 L 510 1163.5 L 510 1159.5 L 503 1139.5 L 503 1135.5 L 497 1119.5 L 495 1108.5 L 489 1092.5 L 488 1085.5 L 481 1065.5 L 481 1061.5 L 475 1045.5 L 474 1037.5 L 467 1018.5 L 465 1007.5 L 463 1004.5 Q 459.2 984.3 452 967.5 L 452 963.5 L 445 944.5 L 445 940.5 L 439.5 924 L 432 953.5 L 431 964.5 L 427 977.5 L 423 1001.5 L 417 1023.5 L 417 1029.5 L 411 1051.5 L 410 1062.5 L 403 1088.5 L 402 1099.5 L 388 1158.5 L 387 1169.5 L 381 1191.5 L 381 1197.5 L 375 1219.5 L 371 1243.5 L 367 1256.5 L 366 1267.5 L 360 1289.5 L 358 1304.5 L 352 1326.5 L 352 1332.5 L 346 1354.5 L 345 1365.5 L 338 1391.5 L 338 1397.5 L 331 1424.5 L 330 1433.5 Q 324.3 1450.8 311.5 1461 Q 301.3 1469.8 285.5 1473 L 107.5 1473 L 92.5 1468 Q 81 1461.6 73 1451.5 Q 65.2 1441.8 62 1427.5 L 62 1406.5 L 68 1384.5 L 69 1373.5 L 75 1351.5 L 77 1336.5 L 83 1314.5 L 83 1308.5 L 89 1286.5 L 93 1262.5 L 97 1249.5 L 98 1238.5 L 112 1179.5 L 113 1168.5 L 117 1155.5 L 121 1131.5 L 126 1113.5 L 127 1103.5 L 133 1081.5 L 134 1071.5 L 140 1048.5 L 142 1033.5 L 148 1011.5 L 148 1005.5 L 154 983.5 L 158 959.5 L 162 946.5 L 163 935.5 L 177 876.5 L 178 865.5 L 182 852.5 Q 185 827.5 192 806.5 L 192 800.5 L 198 778.5 L 202 754.5 L 206 741.5 L 207 730.5 L 213 708.5 L 213 702.5 L 221 671.5 L 221 665.5 L 227 643.5 L 228 632.5 L 234 610.5 L 236 595.5 L 242 573.5 L 242 567.5 L 249 540.5 L 251 525.5 L 257 503.5 L 257 497.5 L 263 475.5 L 265 462.5 L 141.5 388 L 126 380 L 126 378 Z " /><path fill="rgb(252,255,0)" stroke="rgb(252,255,0)" stroke-width="1" opacity="1" d="M 1152.5 1530 L 1154.5 1530 L 1156.5 1531 L 1158.5 1530 L 1160.5 1531 Q 1161.8 1528.8 1166.5 1530 L 1168.5 1531 Q 1169.8 1528.8 1174.5 1530 L 1178.5 1532 L 1181 1531 Q 1179.9 1533.7 1182.5 1533 L 1184.5 1532 L 1188.5 1535 L 1190.5 1535 L 1195 1537.5 L 1195 1556.5 L 1193.5 1557 L 1191 1556 L 1190.5 1554 L 1188.5 1554 L 1185 1553 L 1184.5 1551 L 1182 1552 L 1181.5 1550 L 1179.5 1550 L 1170.5 1548 L 1167.5 1549 L 1165.5 1549 L 1163.5 1548 L 1161.5 1549 L 1159 1548 Q 1160.3 1551 1156.5 1550 L 1151.5 1553 L 1150 1552.5 L 1144 1559.5 L 1143 1563 L 1141 1563.5 L 1141 1565.5 Q 1141.8 1567.8 1139.5 1567 L 1140 1568.5 Q 1141.5 1572.9 1138.5 1572 L 1138 1574.5 L 1139 1579.5 L 1139 1581.5 L 1138 1584.5 L 1139 1586.5 L 1138.5 1588 L 1140 1588.5 L 1140 1590.5 Q 1139.3 1594.8 1142 1595.5 L 1141.5 1597 Q 1143.8 1596.3 1143 1598.5 L 1150.5 1607 L 1155.5 1610 L 1159 1610 Q 1157.9 1612.7 1160.5 1612 L 1162.5 1611 L 1164.5 1611 L 1166.5 1612 L 1169.5 1611 L 1171.5 1611 Q 1177.6 1611.6 1180.5 1609 L 1182 1609.5 Q 1181.3 1607.3 1183.5 1608 L 1185 1608.5 Q 1184.3 1606.3 1186.5 1607 L 1189 1606.5 L 1190.5 1604 L 1192 1604.5 Q 1191.3 1602.3 1193.5 1603 L 1195 1602.5 L 1195 1622.5 L 1193.5 1624 L 1188.5 1626 L 1187 1625.5 Q 1187.8 1627.8 1185.5 1627 L 1184 1626.5 Q 1184.9 1629.5 1180.5 1628 L 1177.5 1629 L 1175.5 1628 Q 1174.5 1631 1169.5 1630 L 1167.5 1630 L 1159.5 1629 L 1156.5 1630 L 1152.5 1628 L 1150.5 1629 L 1148 1628.5 Q 1148.8 1626.3 1146.5 1627 L 1144.5 1628 L 1142.5 1626 L 1137 1625 L 1136.5 1623 Q 1135.3 1625.3 1134 1622.5 L 1133.5 1621 L 1132 1621.5 L 1131.5 1620 Q 1129.8 1622.8 1128 1618.5 Q 1128.8 1616.3 1126.5 1617 L 1122 1612.5 Q 1124.8 1610.7 1120.5 1609 Q 1118.3 1609.8 1119 1607.5 L 1114 1597.5 L 1115 1594 Q 1111.5 1595.1 1113 1587.5 L 1112 1586.5 L 1112 1577.5 L 1112 1575.5 L 1113 1566 Q 1116 1567.3 1115 1563.5 L 1114 1562.5 Q 1117.1 1560.7 1115.5 1559 L 1117 1558.5 L 1117 1556.5 L 1118 1553 L 1120 1552.5 Q 1117.8 1551.2 1120.5 1550 L 1123 1548.5 Q 1120.8 1547.3 1123.5 1546 Q 1125.8 1546.8 1125 1544.5 L 1128 1543 L 1130.5 1539 L 1133.5 1537 L 1135 1537.5 Q 1134.3 1535.3 1136.5 1536 L 1142.5 1533 L 1144 1533.5 Q 1143.2 1530.9 1146.5 1532 L 1148 1532.5 Q 1147.2 1529.9 1150.5 1531 L 1152 1531.5 L 1152.5 1530 Z " /><path fill="rgb(252,255,0)" stroke="rgb(252,255,0)" stroke-width="1" opacity="1" d="M 1293.5 1530 L 1301.5 1531 Q 1302.8 1528.8 1307.5 1530 L 1309.5 1531 L 1311.5 1530 L 1313.5 1530 L 1315.5 1531 L 1317.5 1531 L 1319.5 1532 L 1321.5 1531 L 1325 1532 L 1325.5 1534 L 1327.5 1534 Q 1335 1535.5 1339 1540.5 Q 1338.3 1542.8 1340.5 1542 L 1343 1546 L 1346 1547.5 L 1346 1550 Q 1348.7 1548.9 1348 1551.5 L 1352 1559.5 Q 1349.5 1561 1353 1562.5 L 1354 1567.5 L 1354 1571.5 L 1355 1575.5 L 1355 1577.5 Q 1356.3 1582.3 1354 1583.5 L 1355 1586.5 L 1353 1589.5 L 1354 1591.5 L 1353 1594.5 L 1353 1598 Q 1350.3 1596.9 1351 1599.5 L 1351 1601.5 L 1350 1606 L 1348 1606.5 L 1348 1608.5 L 1345.5 1612 L 1344 1612.5 Q 1346.7 1614.2 1342.5 1616 Q 1340.3 1615.3 1341 1617.5 Q 1339.7 1621.8 1335 1621 L 1334.5 1623 L 1333 1622.5 Q 1333.9 1625.5 1329.5 1624 L 1329.5 1626 L 1326.5 1627 Q 1325 1624.5 1323.5 1628 L 1321.5 1627 L 1320.5 1629 L 1318.5 1629 L 1310.5 1630 L 1308.5 1630 L 1299.5 1629 L 1294.5 1630 L 1291.5 1628 L 1289.5 1629 Q 1288 1625.5 1286.5 1628 L 1283 1627 L 1282.5 1625 L 1280.5 1626 L 1271 1619.5 Q 1271.8 1617.3 1269.5 1618 L 1267 1614 L 1264 1612.5 L 1261 1607.5 L 1261.5 1606 L 1260 1605.5 L 1260.5 1604 Q 1258.3 1604.8 1259 1602.5 Q 1256 1598.5 1256 1591.5 Q 1258.5 1590 1255 1588.5 L 1256 1581.5 L 1255 1579.5 L 1256 1577.5 Q 1253.7 1576.2 1255 1571.5 L 1257 1567.5 L 1256 1565.5 L 1257 1561 L 1259 1560.5 L 1258 1558.5 L 1261.5 1552 L 1263 1551.5 L 1262.5 1550 L 1265 1548.5 L 1264 1547.5 L 1268 1543.5 Q 1267.3 1541.3 1269.5 1542 Q 1272.3 1536.6 1275 1538.5 L 1276.5 1536 L 1278.5 1535 L 1280 1535.5 L 1280.5 1534 L 1282 1534.5 Q 1281.3 1532.3 1283.5 1533 L 1285 1533.5 Q 1284.3 1531.3 1286.5 1532 L 1288 1532.5 Q 1287.3 1530.3 1289.5 1531 L 1291.5 1532 L 1293.5 1530 Z M 1298 1548 L 1298 1550 L 1296 1549 L 1295 1551 Q 1294 1553 1293 1551 L 1287 1558 Q 1288 1560 1286 1559 L 1286 1561 L 1283 1567 Q 1284 1571 1282 1570 L 1281 1573 L 1282 1575 L 1282 1577 L 1282 1587 L 1281 1588 L 1282 1590 L 1282 1592 L 1287 1603 Q 1291 1609 1299 1610 L 1300 1612 Q 1301 1609 1308 1611 L 1311 1612 Q 1310 1609 1314 1610 L 1316 1610 L 1316 1609 Q 1317 1606 1319 1608 L 1324 1601 Q 1323 1598 1326 1599 L 1327 1594 Q 1325 1588 1329 1589 L 1329 1587 L 1328 1583 L 1328 1581 L 1329 1579 L 1328 1575 L 1329 1572 L 1327 1571 L 1328 1568 Q 1329 1565 1327 1566 L 1327 1565 L 1319 1554 Q 1320 1551 1317 1552 L 1315 1549 L 1313 1550 Q 1311 1548 1306 1549 L 1304 1549 L 1298 1548 Z " /><path fill="rgb(252,255,0)" stroke="rgb(252,255,0)" stroke-width="1" opacity="1" d="M 1419.5 1531 L 1420.5 1532 L 1444.5 1532 L 1445.5 1531 L 1453.5 1531 L 1459.5 1533 L 1462.5 1532 L 1464.5 1532 Q 1468.8 1531.3 1469.5 1534 L 1472.5 1533 Q 1474.8 1532.3 1474 1534.5 L 1475.5 1534 Q 1478.8 1532.9 1478 1535.5 L 1479.5 1535 Q 1481.8 1534.3 1481 1536.5 L 1482.5 1536 Q 1484.8 1535.3 1484 1537.5 L 1486 1537.5 L 1486.5 1539 Q 1488 1536.5 1489.5 1540 L 1497 1545.5 Q 1496.3 1547.8 1498.5 1547 L 1505 1555.5 L 1504.5 1557 Q 1506.8 1556.3 1506 1558.5 L 1509 1568.5 Q 1506.5 1570 1510 1571.5 L 1509 1576.5 L 1510 1581.5 L 1509 1583.5 L 1510 1585.5 L 1510 1587.5 L 1508 1591.5 L 1509 1593.5 L 1507 1596.5 L 1508 1597.5 L 1505 1600.5 L 1506 1601.5 L 1504.5 1604 L 1503 1604.5 L 1503 1606.5 L 1494.5 1617 L 1491 1618.5 L 1490.5 1620 L 1489 1619.5 L 1487.5 1622 L 1485.5 1621 L 1484.5 1623 L 1483 1622.5 Q 1483.8 1624.8 1481.5 1624 L 1477.5 1626 L 1475.5 1626 L 1472.5 1627 L 1467.5 1626 L 1465.5 1628 Q 1459.3 1629.7 1457.5 1627 L 1456.5 1628 L 1419 1628 L 1419.5 1531 Z M 1444 1550 L 1444 1610 L 1454 1610 Q 1456 1607 1462 1608 L 1463 1609 Q 1462 1606 1466 1607 L 1467 1608 Q 1466 1605 1469 1606 L 1471 1606 L 1471 1604 L 1479 1598 Q 1478 1595 1481 1596 L 1480 1595 L 1482 1594 L 1481 1593 L 1483 1586 L 1483 1584 L 1484 1581 L 1483 1579 Q 1482 1574 1484 1573 Q 1485 1570 1482 1571 L 1481 1565 Q 1482 1562 1480 1563 Q 1477 1562 1479 1561 L 1478 1560 L 1476 1558 L 1475 1558 L 1471 1555 L 1468 1552 L 1467 1553 L 1461 1552 L 1458 1550 L 1456 1551 L 1454 1550 L 1444 1550 Z " /><path fill="rgb(252,255,0)" stroke="rgb(252,255,0)" stroke-width="1" opacity="1" d="M 1574.5 1531 L 1575.5 1532 L 1640.5 1532 L 1642 1531.5 L 1641.5 1551 L 1640.5 1550 L 1600 1550 L 1600 1569 L 1638.5 1569 L 1640 1568.5 L 1640 1587 L 1600 1587 L 1600 1610 L 1644 1610 L 1644 1628 L 1574 1628 L 1574.5 1531 Z " /><path fill="rgb(51,47,46)" stroke="rgb(51,47,46)" stroke-width="1" opacity="0.996078431372549" d="M 1084.5 456 L 1085.5 458 L 1084.5 456 Z " /><path fill="rgb(51,47,46)" stroke="rgb(51,47,46)" stroke-width="1" opacity="0.996078431372549" d="M 1032.5 1304 L 1052.5 1305 L 1062.5 1308 Q 1078.1 1314.4 1089 1325.5 Q 1098.7 1335.3 1104 1349.5 L 1107 1359.5 L 1108 1379.5 L 1107 1380.5 L 1106 1391.5 L 1102 1402.5 Q 1096.1 1415.1 1086.5 1424 Q 1076.7 1433.7 1062.5 1439 L 1052.5 1442 L 1032.5 1443 L 1031.5 1442 L 1020.5 1441 L 1009.5 1437 Q 996.9 1431.1 988 1421.5 Q 978.3 1411.7 973 1397.5 L 970 1387.5 L 969 1367.5 L 970 1366.5 L 971 1355.5 L 975 1344.5 L 989 1324 L 1009.5 1310 L 1020.5 1306 L 1031.5 1305 L 1032.5 1304 Z M 1046 1349 L 1023 1405 L 1033 1405 L 1056 1351 L 1056 1349 L 1046 1349 Z M 1014 1361 L 986 1375 L 984 1376 L 984 1381 L 1015 1395 L 1016 1395 L 1016 1388 L 997 1379 Q 994 1380 995 1377 L 1016 1369 L 1016 1361 L 1014 1361 Z M 1064 1361 L 1064 1369 L 1084 1377 Q 1086 1376 1085 1379 L 1066 1386 Q 1062 1388 1064 1394 L 1070 1393 L 1095 1381 Q 1097 1382 1096 1376 L 1074 1364 L 1064 1361 Z " /><path fill="rgb(51,47,46)" stroke="rgb(51,47,46)" stroke-width="1" opacity="0.996078431372549" d="M 989.5 1310 L 988.5 1312 L 989.5 1310 Z " /><path fill="rgb(51,47,46)" stroke="rgb(51,47,46)" stroke-width="1" opacity="0.996078431372549" d="M 976.5 1323 L 975.5 1325 L 976.5 1323 Z " /><path fill="rgb(51,47,46)" stroke="rgb(51,47,46)" stroke-width="1" opacity="0.996078431372549" d="M 975.5 1422 L 976.5 1424 L 975.5 1422 Z " /><path fill="rgb(51,47,46)" stroke="rgb(51,47,46)" stroke-width="1" opacity="0.996078431372549" d="M 988.5 1435 L 989.5 1437 L 988.5 1435 Z " /><path fill="rgb(71,133,207)" stroke="rgb(71,133,207)" stroke-width="1" opacity="1" d="M 1241.5 421 L 1347 421.5 L 1241.5 422 L 1241.5 421 Z " /><path fill="rgb(71,133,207)" stroke="rgb(71,133,207)" stroke-width="1" opacity="1" d="M 1087.5 425 L 1086.5 427 L 1087.5 425 Z " /><path fill="rgb(71,133,207)" stroke="rgb(71,133,207)" stroke-width="1" opacity="1" d="M 1083.5 429 L 1082.5 431 L 1083.5 429 Z " /><path fill="rgb(71,133,207)" stroke="rgb(71,133,207)" stroke-width="1" opacity="1" d="M 1100.5 442 L 1792.5 442 L 1793.5 443 L 1808 443.5 L 1793.5 444 L 1792.5 443 L 1103.5 443 L 1104.5 445 L 1107 446.5 L 1105.5 446 Q 1100.9 445.2 1100.5 442 Z " /><path fill="rgb(71,133,207)" stroke="rgb(71,133,207)" stroke-width="1" opacity="1" d="M 1811.5 444 L 1816 444.5 L 1811.5 445 L 1811.5 444 Z " /><path fill="rgb(71,133,207)" stroke="rgb(71,133,207)" stroke-width="1" opacity="1" d="M 1819.5 445 L 1838.5 448 L 1849 451.5 L 1846.5 452 Q 1834.8 447.2 1819.5 446 L 1819.5 445 Z " /><path fill="rgb(71,133,207)" stroke="rgb(71,133,207)" stroke-width="1" opacity="1" d="M 1108.5 447 L 1112 449.5 L 1110.5 449 L 1108.5 447 Z " /><path fill="rgb(71,133,207)" stroke="rgb(71,133,207)" stroke-width="1" opacity="1" d="M 1113.5 450 L 1117 452.5 L 1115.5 452 L 1113.5 450 Z " /><path fill="rgb(71,133,207)" stroke="rgb(71,133,207)" stroke-width="1" opacity="1" d="M 1082.5 453 L 1083.5 455 L 1082.5 453 Z " /><path fill="rgb(71,133,207)" stroke="rgb(71,133,207)" stroke-width="1" opacity="1" d="M 1118.5 453 L 1132 461.5 L 1130.5 461 L 1119.5 455 L 1118.5 453 Z " /><path fill="rgb(71,133,207)" stroke="rgb(71,133,207)" stroke-width="1" opacity="1" d="M 1853.5 453 Q 1880.9 462.1 1899 480.5 Q 1910.7 492.3 1918 508.5 L 1916 507.5 Q 1906.8 486.2 1889.5 473 L 1874.5 463 L 1853.5 454 L 1853.5 453 Z " /><path fill="rgb(71,133,207)" stroke="rgb(71,133,207)" stroke-width="1" opacity="1" d="M 1087.5 458 L 1088.5 460 L 1087.5 458 Z " /><path fill="rgb(71,133,207)" stroke="rgb(71,133,207)" stroke-width="1" opacity="1" d="M 1133.5 462 L 1144 468.5 L 1142.5 468 L 1134.5 464 L 1133.5 462 Z " /><path fill="rgb(71,133,207)" stroke="rgb(71,133,207)" stroke-width="1" opacity="1" d="M 1145.5 469 L 1146.5 471 L 1145.5 469 Z " /><path fill="rgb(71,133,207)" stroke="rgb(71,133,207)" stroke-width="1" opacity="1" d="M 1148.5 471 L 1154 474.5 L 1152.5 474 Q 1147.8 473.2 1148.5 471 Z " /><path fill="rgb(71,133,207)" stroke="rgb(71,133,207)" stroke-width="1" opacity="1" d="M 1155.5 475 L 1169 483.5 L 1167.5 483 L 1156.5 477 L 1155.5 475 Z " /><path fill="rgb(71,133,207)" stroke="rgb(71,133,207)" stroke-width="1" opacity="1" d="M 1170.5 484 L 1181 490.5 L 1179.5 490 L 1171.5 486 L 1170.5 484 Z " /><path fill="rgb(71,133,207)" stroke="rgb(71,133,207)" stroke-width="1" opacity="1" d="M 1182.5 491 L 1183.5 493 L 1182.5 491 Z " /><path fill="rgb(71,133,207)" stroke="rgb(71,133,207)" stroke-width="1" opacity="1" d="M 1185.5 493 L 1191 496.5 L 1189.5 496 Q 1184.8 495.2 1185.5 493 Z " /><path fill="rgb(71,133,207)" stroke="rgb(71,133,207)" stroke-width="1" opacity="1" d="M 1192.5 497 L 1206 505.5 L 1204.5 505 L 1193.5 499 L 1192.5 497 Z " /><path fill="rgb(71,133,207)" stroke="rgb(71,133,207)" stroke-width="1" opacity="1" d="M 1207.5 506 L 1218 512.5 L 1216.5 512 L 1208.5 508 L 1207.5 506 Z " /><path fill="rgb(71,133,207)" stroke="rgb(71,133,207)" stroke-width="1" opacity="1" d="M 1918.5 510 L 1920 513.5 L 1919 513.5 L 1918.5 510 Z " /><path fill="rgb(71,133,207)" stroke="rgb(71,133,207)" stroke-width="1" opacity="1" d="M 1219.5 513 L 1225 516.5 L 1222.5 528 L 1222 524.5 L 1224 517.5 L 1219.5 513 Z " /><path fill="rgb(71,133,207)" stroke="rgb(71,133,207)" stroke-width="1" opacity="1" d="M 1920.5 515 L 1926 530.5 L 1927 538.5 L 1926 538.5 L 1925 530.5 L 1920.5 515 Z " /><path fill="rgb(71,133,207)" stroke="rgb(71,133,207)" stroke-width="1" opacity="1" d="M 1221.5 529 L 1222 531.5 L 1221 531.5 L 1221.5 529 Z " /><path fill="rgb(71,133,207)" stroke="rgb(71,133,207)" stroke-width="1" opacity="1" d="M 1220.5 533 L 1221 535.5 L 1220 535.5 L 1220.5 533 Z " /><path fill="rgb(71,133,207)" stroke="rgb(71,133,207)" stroke-width="1" opacity="1" d="M 1219.5 538 L 1220 541.5 L 1217.5 550 L 1217 546.5 L 1219.5 538 Z " /><path fill="rgb(71,133,207)" stroke="rgb(71,133,207)" stroke-width="1" opacity="1" d="M 1927.5 542 L 1928 545.5 L 1927 545.5 L 1927.5 542 Z " /><path fill="rgb(71,133,207)" stroke="rgb(71,133,207)" stroke-width="1" opacity="1" d="M 1928.5 550 L 1929 573.5 L 1928 573.5 L 1928.5 550 Z " /><path fill="rgb(71,133,207)" stroke="rgb(71,133,207)" stroke-width="1" opacity="1" d="M 1216.5 551 L 1217 553.5 L 1216 553.5 L 1216.5 551 Z " /><path fill="rgb(71,133,207)" stroke="rgb(71,133,207)" stroke-width="1" opacity="1" d="M 1215.5 555 L 1216 558.5 L 1213.5 567 L 1213 564.5 L 1215.5 555 Z " /><path fill="rgb(71,133,207)" stroke="rgb(71,133,207)" stroke-width="1" opacity="1" d="M 1212.5 568 L 1213 572.5 L 1209.5 585 L 1209 581.5 L 1212.5 568 Z " /><path fill="rgb(71,133,207)" stroke="rgb(71,133,207)" stroke-width="1" opacity="1" d="M 1927.5 578 L 1928 581.5 L 1927 581.5 L 1927.5 578 Z " /><path fill="rgb(71,133,207)" stroke="rgb(71,133,207)" stroke-width="1" opacity="1" d="M 1926.5 584 L 1927 587.5 L 1926 587.5 L 1926.5 584 Z " /><path fill="rgb(71,133,207)" stroke="rgb(71,133,207)" stroke-width="1" opacity="1" d="M 1208.5 586 L 1209 588.5 L 1208 588.5 L 1208.5 586 Z " /><path fill="rgb(71,133,207)" stroke="rgb(71,133,207)" stroke-width="1" opacity="1" d="M 1925.5 589 L 1926 592.5 L 1920.5 614 L 1920 610.5 L 1925.5 589 Z " /><path fill="rgb(71,133,207)" stroke="rgb(71,133,207)" stroke-width="1" opacity="1" d="M 1207.5 590 L 1208 592.5 L 1207 592.5 L 1207.5 590 Z " /><path fill="rgb(71,133,207)" stroke="rgb(71,133,207)" stroke-width="1" opacity="1" d="M 1206.5 595 L 1207 598.5 L 1200.5 624 L 1200 621.5 L 1206.5 595 Z " /><path fill="rgb(71,133,207)" stroke="rgb(71,133,207)" stroke-width="1" opacity="1" d="M 1919.5 615 L 1920 617.5 L 1919 617.5 L 1919.5 615 Z " /><path fill="rgb(71,133,207)" stroke="rgb(71,133,207)" stroke-width="1" opacity="1" d="M 1918.5 619 L 1919 622.5 L 1914.5 640 L 1914 635.5 L 1918.5 619 Z " /><path fill="rgb(71,133,207)" stroke="rgb(71,133,207)" stroke-width="1" opacity="1" d="M 1198.5 630 L 1199 633.5 L 1192.5 660 L 1192 656.5 L 1198.5 630 Z " /><path fill="rgb(71,133,207)" stroke="rgb(71,133,207)" stroke-width="1" opacity="1" d="M 1913.5 641 L 1914 643.5 L 1913 643.5 L 1913.5 641 Z " /><path fill="rgb(71,133,207)" stroke="rgb(71,133,207)" stroke-width="1" opacity="1" d="M 1912.5 645 L 1913 648.5 L 1910.5 657 L 1910 653.5 L 1912.5 645 Z " /><path fill="rgb(71,133,207)" stroke="rgb(71,133,207)" stroke-width="1" opacity="1" d="M 1909.5 658 L 1910 661.5 L 1907.5 670 L 1907 666.5 L 1909.5 658 Z " /><path fill="rgb(71,133,207)" stroke="rgb(71,133,207)" stroke-width="1" opacity="1" d="M 1191.5 661 L 1192 663.5 L 1191 663.5 L 1191.5 661 Z " /><path fill="rgb(71,133,207)" stroke="rgb(71,133,207)" stroke-width="1" opacity="1" d="M 1190.5 665 L 1191 669.5 L 1187.5 682 L 1187 678.5 L 1190.5 665 Z " /><path fill="rgb(71,133,207)" stroke="rgb(71,133,207)" stroke-width="1" opacity="1" d="M 1459 676 L 1635.5 676 L 1636 677.5 L 1634.5 677 L 1460.5 677 L 1460 678.5 L 1458.5 684 L 1458 678.5 L 1459 676 Z " /><path fill="rgb(71,133,207)" stroke="rgb(71,133,207)" stroke-width="1" opacity="1" d="M 1904.5 680 L 1905 682.5 L 1898.5 709 L 1898 704.5 L 1904.5 680 Z " /><path fill="rgb(71,133,207)" stroke="rgb(71,133,207)" stroke-width="1" opacity="1" d="M 1634.5 681 L 1635 683.5 L 1634 683.5 L 1634.5 681 Z " /><path fill="rgb(71,133,207)" stroke="rgb(71,133,207)" stroke-width="1" opacity="1" d="M 1186.5 683 L 1187 685.5 L 1186 685.5 L 1186.5 683 Z " /><path fill="rgb(71,133,207)" stroke="rgb(71,133,207)" stroke-width="1" opacity="1" d="M 1457.5 685 L 1458 688.5 L 1454.5 704 L 1454 699.5 L 1457.5 685 Z " /><path fill="rgb(71,133,207)" stroke="rgb(71,133,207)" stroke-width="1" opacity="1" d="M 1633.5 686 L 1634 688.5 L 1633 688.5 L 1633.5 686 Z " /><path fill="rgb(71,133,207)" stroke="rgb(71,133,207)" stroke-width="1" opacity="1" d="M 1185.5 687 L 1186 690.5 L 1179.5 717 L 1179 713.5 L 1185.5 687 Z " /><path fill="rgb(71,133,207)" stroke="rgb(71,133,207)" stroke-width="1" opacity="1" d="M 1632.5 690 L 1633 694.5 L 1629.5 707 L 1629 703.5 L 1632.5 690 Z " /><path fill="rgb(71,133,207)" stroke="rgb(71,133,207)" stroke-width="1" opacity="1" d="M 1453.5 705 L 1454 709.5 L 1451.5 719 L 1451 714.5 L 1453.5 705 Z " /><path fill="rgb(71,133,207)" stroke="rgb(71,133,207)" stroke-width="1" opacity="1" d="M 1628.5 708 L 1629 711.5 L 1626.5 720 L 1626 716.5 L 1628.5 708 Z " /><path fill="rgb(71,133,207)" stroke="rgb(71,133,207)" stroke-width="1" opacity="1" d="M 1897.5 710 L 1898 712.5 L 1897 712.5 L 1897.5 710 Z " /><path fill="rgb(71,133,207)" stroke="rgb(71,133,207)" stroke-width="1" opacity="1" d="M 1896.5 714 L 1897 717.5 L 1892.5 735 L 1892 730.5 L 1896.5 714 Z " /><path fill="rgb(71,133,207)" stroke="rgb(71,133,207)" stroke-width="1" opacity="1" d="M 1178.5 718 L 1179 720.5 L 1178 720.5 L 1178.5 718 Z " /><path fill="rgb(71,133,207)" stroke="rgb(71,133,207)" stroke-width="1" opacity="1" d="M 1450.5 721 L 1451 723.5 L 1450 723.5 L 1450.5 721 Z " /><path fill="rgb(71,133,207)" stroke="rgb(71,133,207)" stroke-width="1" opacity="1" d="M 1625.5 721 L 1626 725.5 L 1621.5 742 L 1621 738.5 L 1625.5 721 Z " /><path fill="rgb(71,133,207)" stroke="rgb(71,133,207)" stroke-width="1" opacity="1" d="M 1177.5 722 L 1178 724.5 L 1177 724.5 L 1177.5 722 Z " /><path fill="rgb(71,133,207)" stroke="rgb(71,133,207)" stroke-width="1" opacity="1" d="M 1449.5 725 L 1450 727.5 L 1449 727.5 L 1449.5 725 Z " /><path fill="rgb(71,133,207)" stroke="rgb(71,133,207)" stroke-width="1" opacity="1" d="M 1176.5 726 L 1177 730.5 L 1173.5 743 L 1173 739.5 L 1176.5 726 Z " /><path fill="rgb(71,133,207)" stroke="rgb(71,133,207)" stroke-width="1" opacity="1" d="M 1448.5 729 L 1449 732.5 L 1442.5 758 L 1442 754.5 L 1448.5 729 Z " /><path fill="rgb(71,133,207)" stroke="rgb(71,133,207)" stroke-width="1" opacity="1" d="M 1891.5 736 L 1892 738.5 L 1888.5 752 L 1888 748.5 L 1891.5 736 Z " /><path fill="rgb(71,133,207)" stroke="rgb(71,133,207)" stroke-width="1" opacity="1" d="M 1620.5 743 L 1621 745.5 L 1620 745.5 L 1620.5 743 Z " /><path fill="rgb(71,133,207)" stroke="rgb(71,133,207)" stroke-width="1" opacity="1" d="M 1172.5 744 L 1173 747.5 L 1170.5 756 L 1170 752.5 L 1172.5 744 Z " /><path fill="rgb(71,133,207)" stroke="rgb(71,133,207)" stroke-width="1" opacity="1" d="M 1619.5 747 L 1620 751.5 Q 1617 756.5 1618 765.5 L 1620 773.5 L 1619 773.5 L 1617 765.5 L 1617 757.5 L 1619.5 747 Z " /><path fill="rgb(71,133,207)" stroke="rgb(71,133,207)" stroke-width="1" opacity="1" d="M 1887.5 753 L 1888 756.5 L 1885.5 765 L 1885 761.5 L 1887.5 753 Z " /><path fill="rgb(71,133,207)" stroke="rgb(71,133,207)" stroke-width="1" opacity="1" d="M 1169.5 757 L 1170 760.5 L 1165.5 777 L 1165 774.5 L 1169.5 757 Z " /><path fill="rgb(71,133,207)" stroke="rgb(71,133,207)" stroke-width="1" opacity="1" d="M 1441.5 759 L 1442 761.5 L 1441 761.5 L 1441.5 759 Z " /><path fill="rgb(71,133,207)" stroke="rgb(71,133,207)" stroke-width="1" opacity="1" d="M 1440.5 763 L 1441 765.5 L 1440 765.5 L 1440.5 763 Z " /><path fill="rgb(71,133,207)" stroke="rgb(71,133,207)" stroke-width="1" opacity="1" d="M 1884.5 766 L 1885 768.5 L 1884 768.5 L 1884.5 766 Z " /><path fill="rgb(71,133,207)" stroke="rgb(71,133,207)" stroke-width="1" opacity="1" d="M 1439.5 767 L 1440 770.5 L 1436.5 783 L 1436 778.5 L 1439.5 767 Z " /><path fill="rgb(71,133,207)" stroke="rgb(71,133,207)" stroke-width="1" opacity="1" d="M 1883.5 770 L 1884 772.5 Q 1880.7 782.7 1873.5 789 Q 1866.7 795.2 1856.5 798 L 1646.5 798 L 1638 794.5 L 1639.5 794 L 1646.5 797 L 1855.5 797 Q 1867.8 794.3 1875 786.5 Q 1881.1 780.1 1883.5 770 Z " /><path fill="rgb(71,133,207)" stroke="rgb(71,133,207)" stroke-width="1" opacity="1" d="M 1621.5 777 L 1630.5 789 L 1637 793.5 L 1635.5 793 L 1625 784.5 L 1621 778.5 L 1621.5 777 Z " /><path fill="rgb(71,133,207)" stroke="rgb(71,133,207)" stroke-width="1" opacity="1" d="M 1163.5 783 L 1164 786.5 L 1158.5 808 L 1158 804.5 L 1163.5 783 Z " /><path fill="rgb(71,133,207)" stroke="rgb(71,133,207)" stroke-width="1" opacity="1" d="M 1435.5 784 L 1436 786.5 L 1435 786.5 L 1435.5 784 Z " /><path fill="rgb(71,133,207)" stroke="rgb(71,133,207)" stroke-width="1" opacity="1" d="M 1434.5 788 L 1435 791.5 L 1429.5 813 L 1429 808.5 L 1434.5 788 Z " /><path fill="rgb(71,133,207)" stroke="rgb(71,133,207)" stroke-width="1" opacity="1" d="M 1157.5 809 L 1158 811.5 L 1157 811.5 L 1157.5 809 Z " /><path fill="rgb(71,133,207)" stroke="rgb(71,133,207)" stroke-width="1" opacity="1" d="M 1156.5 813 L 1157 815.5 L 1156 815.5 L 1156.5 813 Z " /><path fill="rgb(71,133,207)" stroke="rgb(71,133,207)" stroke-width="1" opacity="1" d="M 1428.5 814 L 1429 816.5 L 1428 816.5 L 1428.5 814 Z " /><path fill="rgb(71,133,207)" stroke="rgb(71,133,207)" stroke-width="1" opacity="1" d="M 1427.5 818 L 1428 820.5 L 1427 820.5 L 1427.5 818 Z " /><path fill="rgb(71,133,207)" stroke="rgb(71,133,207)" stroke-width="1" opacity="1" d="M 1154.5 822 L 1155 825.5 L 1149.5 847 L 1149 843.5 L 1154.5 822 Z " /><path fill="rgb(71,133,207)" stroke="rgb(71,133,207)" stroke-width="1" opacity="1" d="M 1426.5 822 L 1427 825.5 L 1421.5 847 L 1421 842.5 L 1426.5 822 Z " /><path fill="rgb(71,133,207)" stroke="rgb(71,133,207)" stroke-width="1" opacity="1" d="M 1148.5 848 L 1149 850.5 L 1148 850.5 L 1148.5 848 Z " /><path fill="rgb(71,133,207)" stroke="rgb(71,133,207)" stroke-width="1" opacity="1" d="M 1420.5 848 L 1421 850.5 L 1420 850.5 L 1420.5 848 Z " /><path fill="rgb(71,133,207)" stroke="rgb(71,133,207)" stroke-width="1" opacity="1" d="M 1147.5 852 L 1148 856.5 L 1144.5 869 L 1144 865.5 L 1147.5 852 Z " /><path fill="rgb(71,133,207)" stroke="rgb(71,133,207)" stroke-width="1" opacity="1" d="M 1419.5 852 L 1420 854.5 L 1419 854.5 L 1419.5 852 Z " /><path fill="rgb(71,133,207)" stroke="rgb(71,133,207)" stroke-width="1" opacity="1" d="M 1418.5 856 L 1419 858.5 L 1418 858.5 L 1418.5 856 Z " /><path fill="rgb(71,133,207)" stroke="rgb(71,133,207)" stroke-width="1" opacity="1" d="M 1417.5 860 L 1418 863.5 L 1415.5 872 L 1415 867.5 L 1417.5 860 Z " /><path fill="rgb(71,133,207)" stroke="rgb(71,133,207)" stroke-width="1" opacity="1" d="M 1143.5 870 L 1144 872.5 L 1143 872.5 L 1143.5 870 Z " /><path fill="rgb(71,133,207)" stroke="rgb(71,133,207)" stroke-width="1" opacity="1" d="M 1414.5 873 L 1415 875.5 L 1411.5 889 L 1411 885.5 L 1414.5 873 Z " /><path fill="rgb(71,133,207)" stroke="rgb(71,133,207)" stroke-width="1" opacity="1" d="M 1142.5 874 L 1143 877.5 L 1136.5 904 L 1136 900.5 L 1142.5 874 Z " /><path fill="rgb(71,133,207)" stroke="rgb(71,133,207)" stroke-width="1" opacity="1" d="M 1410.5 890 L 1411 892.5 L 1407.5 906 L 1407 901.5 L 1410.5 890 Z " /><path fill="rgb(71,133,207)" stroke="rgb(71,133,207)" stroke-width="1" opacity="1" d="M 1135.5 905 L 1136 907.5 L 1135 907.5 L 1135.5 905 Z " /><path fill="rgb(71,133,207)" stroke="rgb(71,133,207)" stroke-width="1" opacity="1" d="M 1406.5 907 L 1407 909.5 L 1406 909.5 L 1406.5 907 Z " /><path fill="rgb(71,133,207)" stroke="rgb(71,133,207)" stroke-width="1" opacity="1" d="M 1134.5 909 L 1135 911.5 L 1134 911.5 L 1134.5 909 Z " /><path fill="rgb(71,133,207)" stroke="rgb(71,133,207)" stroke-width="1" opacity="1" d="M 1405.5 911 L 1406 913.5 L 1399.5 940 L 1399 935.5 L 1405.5 911 Z " /><path fill="rgb(71,133,207)" stroke="rgb(71,133,207)" stroke-width="1" opacity="1" d="M 1133.5 913 L 1134 917.5 L 1127.5 943 L 1127 939.5 L 1133.5 913 Z " /><path fill="rgb(71,133,207)" stroke="rgb(71,133,207)" stroke-width="1" opacity="1" d="M 1398.5 941 L 1399 943.5 L 1398 943.5 L 1398.5 941 Z " /><path fill="rgb(71,133,207)" stroke="rgb(71,133,207)" stroke-width="1" opacity="1" d="M 1126.5 944 L 1127 946.5 L 1126 946.5 L 1126.5 944 Z " /><path fill="rgb(71,133,207)" stroke="rgb(71,133,207)" stroke-width="1" opacity="1" d="M 1397.5 945 L 1398 947.5 L 1397 947.5 L 1397.5 945 Z " /><path fill="rgb(71,133,207)" stroke="rgb(71,133,207)" stroke-width="1" opacity="1" d="M 1125.5 948 L 1126 952.5 L 1122.5 964 L 1122 961.5 L 1125.5 948 Z " /><path fill="rgb(71,133,207)" stroke="rgb(71,133,207)" stroke-width="1" opacity="1" d="M 1396.5 949 L 1397 952.5 L 1393.5 965 L 1393 960.5 L 1396.5 949 Z " /><path fill="rgb(71,133,207)" stroke="rgb(71,133,207)" stroke-width="1" opacity="1" d="M 1121.5 965 L 1122 968.5 L 1121 968.5 L 1121.5 965 Z " /><path fill="rgb(71,133,207)" stroke="rgb(71,133,207)" stroke-width="1" opacity="1" d="M 1392.5 966 L 1393 968.5 L 1392 968.5 L 1392.5 966 Z " /><path fill="rgb(71,133,207)" stroke="rgb(71,133,207)" stroke-width="1" opacity="1" d="M 1120.5 970 L 1121 973.5 L 1115.5 995 L 1115 991.5 L 1120.5 970 Z " /><path fill="rgb(71,133,207)" stroke="rgb(71,133,207)" stroke-width="1" opacity="1" d="M 1391.5 970 L 1392 973.5 L 1386.5 995 L 1386 990.5 L 1391.5 970 Z " /><path fill="rgb(71,133,207)" stroke="rgb(71,133,207)" stroke-width="1" opacity="1" d="M 1114.5 996 L 1115 998.5 L 1114 998.5 L 1114.5 996 Z " /><path fill="rgb(71,133,207)" stroke="rgb(71,133,207)" stroke-width="1" opacity="1" d="M 1385.5 996 L 1386 998.5 L 1385 998.5 L 1385.5 996 Z " /><path fill="rgb(71,133,207)" stroke="rgb(71,133,207)" stroke-width="1" opacity="1" d="M 1113.5 1000 L 1114 1002.5 L 1113 1002.5 L 1113.5 1000 Z " /><path fill="rgb(71,133,207)" stroke="rgb(71,133,207)" stroke-width="1" opacity="1" d="M 1384.5 1000 L 1385 1002.5 L 1384 1002.5 L 1384.5 1000 Z " /><path fill="rgb(71,133,207)" stroke="rgb(71,133,207)" stroke-width="1" opacity="1" d="M 1383.5 1004 L 1384 1006.5 L 1378.5 1028 L 1378 1024.5 L 1383.5 1004 Z " /><path fill="rgb(71,133,207)" stroke="rgb(71,133,207)" stroke-width="1" opacity="1" d="M 1112.5 1005 L 1113 1007.5 L 1112 1007.5 L 1112.5 1005 Z " /><path fill="rgb(71,133,207)" stroke="rgb(71,133,207)" stroke-width="1" opacity="1" d="M 1111.5 1009 L 1112 1012.5 L 1106.5 1034 L 1106 1030.5 L 1111.5 1009 Z " /><path fill="rgb(71,133,207)" stroke="rgb(71,133,207)" stroke-width="1" opacity="1" d="M 1377.5 1030 L 1378 1032.5 L 1377 1032.5 L 1377.5 1030 Z " /><path fill="rgb(71,133,207)" stroke="rgb(71,133,207)" stroke-width="1" opacity="1" d="M 1376.5 1034 L 1377 1036.5 L 1376 1036.5 L 1376.5 1034 Z " /><path fill="rgb(71,133,207)" stroke="rgb(71,133,207)" stroke-width="1" opacity="1" d="M 1105.5 1035 L 1106 1037.5 L 1105 1037.5 L 1105.5 1035 Z " /><path fill="rgb(71,133,207)" stroke="rgb(71,133,207)" stroke-width="1" opacity="1" d="M 1375.5 1038 L 1376 1040.5 L 1375 1040.5 L 1375.5 1038 Z " /><path fill="rgb(71,133,207)" stroke="rgb(71,133,207)" stroke-width="1" opacity="1" d="M 1104.5 1039 L 1105 1043.5 L 1101.5 1056 L 1101 1052.5 L 1104.5 1039 Z " /><path fill="rgb(71,133,207)" stroke="rgb(71,133,207)" stroke-width="1" opacity="1" d="M 1374.5 1042 L 1375 1045.5 L 1364.5 1088 L 1364 1083.5 L 1374.5 1042 Z " /><path fill="rgb(71,133,207)" stroke="rgb(71,133,207)" stroke-width="1" opacity="1" d="M 1100.5 1057 L 1101 1059.5 L 1100 1059.5 L 1100.5 1057 Z " /><path fill="rgb(71,133,207)" stroke="rgb(71,133,207)" stroke-width="1" opacity="1" d="M 1099.5 1061 L 1100 1064.5 L 1097.5 1073 L 1097 1069.5 L 1099.5 1061 Z " /><path fill="rgb(71,133,207)" stroke="rgb(71,133,207)" stroke-width="1" opacity="1" d="M 1096.5 1074 L 1097 1078.5 L 1092.5 1095 L 1092 1091.5 L 1096.5 1074 Z " /><path fill="rgb(71,133,207)" stroke="rgb(71,133,207)" stroke-width="1" opacity="1" d="M 1363.5 1089 L 1364 1091.5 L 1363 1091.5 L 1363.5 1089 Z " /><path fill="rgb(71,133,207)" stroke="rgb(71,133,207)" stroke-width="1" opacity="1" d="M 1362.5 1093 L 1363 1095.5 L 1356.5 1121 L 1356 1117.5 L 1362.5 1093 Z " /><path fill="rgb(71,133,207)" stroke="rgb(71,133,207)" stroke-width="1" opacity="1" d="M 1561.5 1094 L 1565 1094.5 L 1561.5 1095 L 1561.5 1094 Z " /><path fill="rgb(71,133,207)" stroke="rgb(71,133,207)" stroke-width="1" opacity="1" d="M 1767.5 1094 L 1771 1094.5 L 1767.5 1095 L 1767.5 1094 Z " /><path fill="rgb(71,133,207)" stroke="rgb(71,133,207)" stroke-width="1" opacity="1" d="M 1772.5 1095 Q 1787 1098.5 1794 1109.5 L 1797 1115.5 L 1796 1115.5 Q 1792.4 1106.1 1784.5 1101 Q 1780.2 1096.8 1772.5 1096 L 1772.5 1095 Z " /><path fill="rgb(71,133,207)" stroke="rgb(71,133,207)" stroke-width="1" opacity="1" d="M 1091.5 1096 L 1092 1098.5 L 1091 1098.5 L 1091.5 1096 Z " /><path fill="rgb(71,133,207)" stroke="rgb(71,133,207)" stroke-width="1" opacity="1" d="M 1555.5 1096 L 1557 1096.5 Q 1546.9 1099.9 1541 1107.5 L 1538.5 1111 L 1540 1108.5 L 1546.5 1101 L 1555.5 1096 Z " /><path fill="rgb(71,133,207)" stroke="rgb(71,133,207)" stroke-width="1" opacity="1" d="M 1090.5 1100 L 1091 1104.5 L 1084.5 1129 L 1084 1126.5 L 1090.5 1100 Z " /><path fill="rgb(71,133,207)" stroke="rgb(71,133,207)" stroke-width="1" opacity="1" d="M 1537.5 1112 L 1537 1113.5 L 1531.5 1133 L 1531 1129.5 L 1535 1115.5 L 1537.5 1112 Z " /><path fill="rgb(71,133,207)" stroke="rgb(71,133,207)" stroke-width="1" opacity="1" d="M 1797.5 1117 Q 1801.9 1124.1 1800 1137.5 L 1798.5 1143 L 1798 1138.5 L 1799 1137.5 L 1799 1124.5 L 1797.5 1117 Z " /><path fill="rgb(71,133,207)" stroke="rgb(71,133,207)" stroke-width="1" opacity="1" d="M 1354.5 1127 L 1355 1129.5 L 1348.5 1155 L 1348 1151.5 L 1354.5 1127 Z " /><path fill="rgb(71,133,207)" stroke="rgb(71,133,207)" stroke-width="1" opacity="1" d="M 1083.5 1131 L 1084 1133.5 L 1083 1133.5 L 1083.5 1131 Z " /><path fill="rgb(71,133,207)" stroke="rgb(71,133,207)" stroke-width="1" opacity="1" d="M 1530.5 1134 L 1531 1138.5 L 1527.5 1150 L 1527 1146.5 L 1530.5 1134 Z " /><path fill="rgb(71,133,207)" stroke="rgb(71,133,207)" stroke-width="1" opacity="1" d="M 1082.5 1135 L 1083 1139.5 L 1079.5 1151 L 1079 1148.5 L 1082.5 1135 Z " /><path fill="rgb(71,133,207)" stroke="rgb(71,133,207)" stroke-width="1" opacity="1" d="M 1797.5 1144 L 1798 1146.5 L 1797 1146.5 L 1797.5 1144 Z " /><path fill="rgb(71,133,207)" stroke="rgb(71,133,207)" stroke-width="1" opacity="1" d="M 1796.5 1148 L 1797 1151.5 L 1791.5 1174 L 1791 1169.5 L 1796.5 1148 Z " /><path fill="rgb(71,133,207)" stroke="rgb(71,133,207)" stroke-width="1" opacity="1" d="M 1526.5 1151 L 1527 1153.5 L 1526 1153.5 L 1526.5 1151 Z " /><path fill="rgb(71,133,207)" stroke="rgb(71,133,207)" stroke-width="1" opacity="1" d="M 1078.5 1152 L 1079 1155.5 L 1078 1155.5 L 1078.5 1152 Z " /><path fill="rgb(71,133,207)" stroke="rgb(71,133,207)" stroke-width="1" opacity="1" d="M 1525.5 1155 L 1526 1157.5 L 1525 1157.5 L 1525.5 1155 Z " /><path fill="rgb(71,133,207)" stroke="rgb(71,133,207)" stroke-width="1" opacity="1" d="M 1347.5 1156 L 1348 1158.5 L 1347 1158.5 L 1347.5 1156 Z " /><path fill="rgb(71,133,207)" stroke="rgb(71,133,207)" stroke-width="1" opacity="1" d="M 1077.5 1157 L 1078 1160.5 L 1072.5 1182 L 1072 1178.5 L 1077.5 1157 Z " /><path fill="rgb(71,133,207)" stroke="rgb(71,133,207)" stroke-width="1" opacity="1" d="M 1524.5 1159 L 1525 1163.5 L 1518.5 1188 L 1518 1185.5 L 1524.5 1159 Z " /><path fill="rgb(71,133,207)" stroke="rgb(71,133,207)" stroke-width="1" opacity="1" d="M 1346.5 1161 L 1347 1163.5 L 1346 1163.5 L 1346.5 1161 Z " /><path fill="rgb(71,133,207)" stroke="rgb(71,133,207)" stroke-width="1" opacity="1" d="M 1345.5 1165 L 1346 1167.5 L 1342.5 1181 L 1342 1176.5 L 1345.5 1165 Z " /><path fill="rgb(71,133,207)" stroke="rgb(71,133,207)" stroke-width="1" opacity="1" d="M 1790.5 1175 L 1791 1177.5 L 1790 1177.5 L 1790.5 1175 Z " /><path fill="rgb(71,133,207)" stroke="rgb(71,133,207)" stroke-width="1" opacity="1" d="M 1789.5 1179 L 1790 1181.5 L 1789 1181.5 L 1789.5 1179 Z " /><path fill="rgb(71,133,207)" stroke="rgb(71,133,207)" stroke-width="1" opacity="1" d="M 1341.5 1182 L 1342 1184.5 L 1341 1184.5 L 1341.5 1182 Z " /><path fill="rgb(71,133,207)" stroke="rgb(71,133,207)" stroke-width="1" opacity="1" d="M 1071.5 1183 L 1072 1185.5 L 1071 1185.5 L 1071.5 1183 Z " /><path fill="rgb(71,133,207)" stroke="rgb(71,133,207)" stroke-width="1" opacity="1" d="M 1788.5 1183 L 1789 1186.5 L 1782.5 1213 L 1782 1209.5 L 1788.5 1183 Z " /><path fill="rgb(71,133,207)" stroke="rgb(71,133,207)" stroke-width="1" opacity="1" d="M 1340.5 1186 L 1341 1188.5 L 1335.5 1210 L 1335 1206.5 L 1340.5 1186 Z " /><path fill="rgb(71,133,207)" stroke="rgb(71,133,207)" stroke-width="1" opacity="1" d="M 1070.5 1187 L 1071 1189.5 L 1070 1189.5 L 1070.5 1187 Z " /><path fill="rgb(71,133,207)" stroke="rgb(71,133,207)" stroke-width="1" opacity="1" d="M 1069.5 1191 L 1070 1194.5 L 1069 1194.5 L 1069.5 1191 Z " /><path fill="rgb(71,133,207)" stroke="rgb(71,133,207)" stroke-width="1" opacity="1" d="M 1516.5 1194 L 1517 1197.5 L 1513.5 1210 L 1513 1206.5 L 1516.5 1194 Z " /><path fill="rgb(71,133,207)" stroke="rgb(71,133,207)" stroke-width="1" opacity="1" d="M 1068.5 1196 L 1069 1199.5 L 1063.5 1221 L 1063 1217.5 L 1068.5 1196 Z " /><path fill="rgb(71,133,207)" stroke="rgb(71,133,207)" stroke-width="1" opacity="1" d="M 1512.5 1211 L 1513 1214.5 L 1510.5 1223 L 1510 1219.5 L 1512.5 1211 Z " /><path fill="rgb(71,133,207)" stroke="rgb(71,133,207)" stroke-width="1" opacity="1" d="M 1781.5 1214 L 1782 1216.5 L 1781 1216.5 L 1781.5 1214 Z " /><path fill="rgb(71,133,207)" stroke="rgb(71,133,207)" stroke-width="1" opacity="1" d="M 1333.5 1216 L 1334 1218.5 L 1333 1218.5 L 1333.5 1216 Z " /><path fill="rgb(71,133,207)" stroke="rgb(71,133,207)" stroke-width="1" opacity="1" d="M 1780.5 1218 L 1781 1221.5 L 1780 1221.5 L 1780.5 1218 Z " /><path fill="rgb(71,133,207)" stroke="rgb(71,133,207)" stroke-width="1" opacity="1" d="M 1332.5 1220 L 1333 1222.5 L 1329 1238 L 1505.5 1238 L 1506 1236.5 L 1509.5 1224 L 1510 1227.5 L 1507 1239 L 1328.5 1239 L 1328 1235.5 L 1332.5 1220 Z " /><path fill="rgb(71,133,207)" stroke="rgb(71,133,207)" stroke-width="1" opacity="1" d="M 1062.5 1222 L 1063 1224.5 L 1062 1224.5 L 1062.5 1222 Z " /><path fill="rgb(71,133,207)" stroke="rgb(71,133,207)" stroke-width="1" opacity="1" d="M 1779.5 1223 L 1780 1226.5 L 1776.5 1239 L 1776 1235.5 L 1779.5 1223 Z " /><path fill="rgb(71,133,207)" stroke="rgb(71,133,207)" stroke-width="1" opacity="1" d="M 1061.5 1226 L 1062 1228.5 L 1061 1228.5 L 1061.5 1226 Z " /><path fill="rgb(71,133,207)" stroke="rgb(71,133,207)" stroke-width="1" opacity="1" d="M 1060.5 1230 L 1061 1234.5 L 1057.5 1247 L 1057 1243.5 L 1060.5 1230 Z " /><path fill="rgb(71,133,207)" stroke="rgb(71,133,207)" stroke-width="1" opacity="1" d="M 1775.5 1240 L 1776 1243.5 L 1769.5 1270 L 1769 1266.5 L 1775.5 1240 Z " /><path fill="rgb(71,133,207)" stroke="rgb(71,133,207)" stroke-width="1" opacity="1" d="M 1056.5 1248 L 1057 1251.5 L 1054.5 1260 L 1054 1256.5 L 1056.5 1248 Z " /><path fill="rgb(71,133,207)" stroke="rgb(71,133,207)" stroke-width="1" opacity="1" d="M 1053.5 1261 L 1054 1265.5 L 1049.5 1281 L 1049 1278.5 L 1053.5 1261 Z " /><path fill="rgb(71,133,207)" stroke="rgb(71,133,207)" stroke-width="1" opacity="1" d="M 1767.5 1276 L 1768 1278.5 L 1767 1278.5 L 1767.5 1276 Z " /><path fill="rgb(71,133,207)" stroke="rgb(71,133,207)" stroke-width="1" opacity="1" d="M 1766.5 1280 L 1767 1283.5 L 1761.5 1305 L 1761 1301.5 L 1766.5 1280 Z " /><path fill="rgb(71,133,207)" stroke="rgb(71,133,207)" stroke-width="1" opacity="1" d="M 1048.5 1283 L 1049 1285.5 L 1048 1285.5 L 1048.5 1283 Z " /><path fill="rgb(71,133,207)" stroke="rgb(71,133,207)" stroke-width="1" opacity="1" d="M 1047.5 1287 L 1048 1291.5 L 1047 1294 L 1051 1294.5 L 1047.5 1295 L 1046 1291.5 L 1047.5 1287 Z " /><path fill="rgb(71,133,207)" stroke="rgb(71,133,207)" stroke-width="1" opacity="1" d="M 1072.5 1301 L 1077 1303.5 L 1075.5 1303 Q 1071.8 1302.8 1072.5 1301 Z " /><path fill="rgb(71,133,207)" stroke="rgb(71,133,207)" stroke-width="1" opacity="1" d="M 1028.5 1304 L 1032 1304.5 L 1028.5 1305 L 1028.5 1304 Z " /><path fill="rgb(71,133,207)" stroke="rgb(71,133,207)" stroke-width="1" opacity="1" d="M 1045.5 1304 L 1049 1304.5 L 1045.5 1305 L 1045.5 1304 Z " /><path fill="rgb(71,133,207)" stroke="rgb(71,133,207)" stroke-width="1" opacity="1" d="M 1080.5 1305 L 1081.5 1307 L 1080.5 1305 Z " /><path fill="rgb(71,133,207)" stroke="rgb(71,133,207)" stroke-width="1" opacity="1" d="M 995.5 1306 L 994.5 1308 L 995.5 1306 Z " /><path fill="rgb(71,133,207)" stroke="rgb(71,133,207)" stroke-width="1" opacity="1" d="M 1760.5 1306 L 1761 1309.5 L 1760 1309.5 L 1760.5 1306 Z " /><path fill="rgb(71,133,207)" stroke="rgb(71,133,207)" stroke-width="1" opacity="1" d="M 1083.5 1307 L 1084.5 1309 L 1083.5 1307 Z " /><path fill="rgb(71,133,207)" stroke="rgb(71,133,207)" stroke-width="1" opacity="1" d="M 992.5 1308 L 991.5 1310 L 992.5 1308 Z " /><path fill="rgb(71,133,207)" stroke="rgb(71,133,207)" stroke-width="1" opacity="1" d="M 1086.5 1309 L 1089.5 1313 L 1086.5 1309 Z " /><path fill="rgb(71,133,207)" stroke="rgb(71,133,207)" stroke-width="1" opacity="1" d="M 1006.5 1311 L 1005.5 1313 L 1006.5 1311 Z " /><path fill="rgb(71,133,207)" stroke="rgb(71,133,207)" stroke-width="1" opacity="1" d="M 1070.5 1311 L 1071.5 1313 L 1070.5 1311 Z " /><path fill="rgb(71,133,207)" stroke="rgb(71,133,207)" stroke-width="1" opacity="1" d="M 1759.5 1311 L 1760 1313.5 L 1759 1313.5 L 1759.5 1311 Z " /><path fill="rgb(71,133,207)" stroke="rgb(71,133,207)" stroke-width="1" opacity="1" d="M 987.5 1312 L 986.5 1314 L 987.5 1312 Z " /><path fill="rgb(71,133,207)" stroke="rgb(71,133,207)" stroke-width="1" opacity="1" d="M 1091.5 1313 L 1098.5 1321 L 1091.5 1313 Z " /><path fill="rgb(71,133,207)" stroke="rgb(71,133,207)" stroke-width="1" opacity="1" d="M 1001.5 1314 L 1000.5 1316 L 1001.5 1314 Z " /><path fill="rgb(71,133,207)" stroke="rgb(71,133,207)" stroke-width="1" opacity="1" d="M 1075.5 1314 L 1076.5 1316 L 1075.5 1314 Z " /><path fill="rgb(71,133,207)" stroke="rgb(71,133,207)" stroke-width="1" opacity="1" d="M 1758.5 1315 L 1759 1317.5 L 1755.5 1327 L 1755 1324.5 L 1758.5 1315 Z " /><path fill="rgb(71,133,207)" stroke="rgb(71,133,207)" stroke-width="1" opacity="1" d="M 998.5 1316 L 997.5 1318 L 998.5 1316 Z " /><path fill="rgb(71,133,207)" stroke="rgb(71,133,207)" stroke-width="1" opacity="1" d="M 1078.5 1316 L 1079.5 1318 L 1078.5 1316 Z " /><path fill="rgb(71,133,207)" stroke="rgb(71,133,207)" stroke-width="1" opacity="1" d="M 994.5 1319 L 990.5 1324 L 994.5 1319 Z " /><path fill="rgb(71,133,207)" stroke="rgb(71,133,207)" stroke-width="1" opacity="1" d="M 1082.5 1319 L 1085.5 1323 L 1082.5 1319 Z " /><path fill="rgb(71,133,207)" stroke="rgb(71,133,207)" stroke-width="1" opacity="1" d="M 979.5 1320 L 977.5 1323 L 979.5 1320 Z " /><path fill="rgb(71,133,207)" stroke="rgb(71,133,207)" stroke-width="1" opacity="1" d="M 1099.5 1322 L 1102.5 1326 L 1099.5 1322 Z " /><path fill="rgb(71,133,207)" stroke="rgb(71,133,207)" stroke-width="1" opacity="1" d="M 988.5 1325 L 985.5 1329 L 988.5 1325 Z " /><path fill="rgb(71,133,207)" stroke="rgb(71,133,207)" stroke-width="1" opacity="1" d="M 974.5 1326 L 973.5 1328 L 974.5 1326 Z " /><path fill="rgb(71,133,207)" stroke="rgb(71,133,207)" stroke-width="1" opacity="1" d="M 1089.5 1326 L 1092.5 1330 L 1089.5 1326 Z " /><path fill="rgb(71,133,207)" stroke="rgb(71,133,207)" stroke-width="1" opacity="1" d="M 1103.5 1327 L 1104.5 1329 L 1103.5 1327 Z " /><path fill="rgb(71,133,207)" stroke="rgb(71,133,207)" stroke-width="1" opacity="1" d="M 1754.5 1328 L 1755 1329.5 Q 1737.5 1373.5 1704.5 1402 L 1694.5 1410 L 1697.5 1406 Q 1710.5 1397.5 1720 1385.5 Q 1742 1361.5 1754.5 1328 Z " /><path fill="rgb(71,133,207)" stroke="rgb(71,133,207)" stroke-width="1" opacity="1" d="M 972.5 1329 L 971.5 1331 L 972.5 1329 Z " /><path fill="rgb(71,133,207)" stroke="rgb(71,133,207)" stroke-width="1" opacity="1" d="M 1105.5 1330 L 1106.5 1332 L 1105.5 1330 Z " /><path fill="rgb(71,133,207)" stroke="rgb(71,133,207)" stroke-width="1" opacity="1" d="M 982.5 1332 L 981.5 1334 L 982.5 1332 Z " /><path fill="rgb(71,133,207)" stroke="rgb(71,133,207)" stroke-width="1" opacity="1" d="M 1094.5 1332 L 1095.5 1334 L 1094.5 1332 Z " /><path fill="rgb(71,133,207)" stroke="rgb(71,133,207)" stroke-width="1" opacity="1" d="M 1107.5 1333 L 1112 1341.5 L 1111 1341.5 L 1107.5 1333 Z " /><path fill="rgb(71,133,207)" stroke="rgb(71,133,207)" stroke-width="1" opacity="1" d="M 980.5 1335 L 979.5 1337 L 980.5 1335 Z " /><path fill="rgb(71,133,207)" stroke="rgb(71,133,207)" stroke-width="1" opacity="1" d="M 977.5 1340 L 976.5 1342 L 977.5 1340 Z " /><path fill="rgb(71,133,207)" stroke="rgb(71,133,207)" stroke-width="1" opacity="1" d="M 1099.5 1340 L 1100.5 1342 L 1099.5 1340 Z " /><path fill="rgb(71,133,207)" stroke="rgb(71,133,207)" stroke-width="1" opacity="1" d="M 1046.5 1349 L 1055.5 1349 L 1056 1350.5 L 1054.5 1350 L 1046.5 1350 L 1046.5 1349 Z " /><path fill="rgb(71,133,207)" stroke="rgb(71,133,207)" stroke-width="1" opacity="1" d="M 1116.5 1355 L 1117 1357.5 L 1116 1357.5 L 1116.5 1355 Z " /><path fill="rgb(71,133,207)" stroke="rgb(71,133,207)" stroke-width="1" opacity="1" d="M 1015.5 1361 L 1016 1368.5 L 1015 1368.5 L 1015.5 1361 Z " /><path fill="rgb(71,133,207)" stroke="rgb(71,133,207)" stroke-width="1" opacity="1" d="M 1064.5 1361 L 1065 1368.5 L 1064 1368.5 L 1064.5 1361 Z " /><path fill="rgb(71,133,207)" stroke="rgb(71,133,207)" stroke-width="1" opacity="1" d="M 1117.5 1361 L 1118 1364.5 L 1117 1364.5 L 1117.5 1361 Z " /><path fill="rgb(71,133,207)" stroke="rgb(71,133,207)" stroke-width="1" opacity="1" d="M 959.5 1363 L 960 1366.5 L 959 1366.5 L 959.5 1363 Z " /><path fill="rgb(71,133,207)" stroke="rgb(71,133,207)" stroke-width="1" opacity="1" d="M 969.5 1363 L 970 1366.5 L 969 1366.5 L 969.5 1363 Z " /><path fill="rgb(71,133,207)" stroke="rgb(71,133,207)" stroke-width="1" opacity="1" d="M 1107.5 1363 L 1108 1366.5 L 1107 1366.5 L 1107.5 1363 Z " /><path fill="rgb(71,133,207)" stroke="rgb(71,133,207)" stroke-width="1" opacity="1" d="M 1094.5 1374 Q 1097.3 1375.3 1096 1380.5 L 1095 1380.5 L 1094.5 1374 Z " /><path fill="rgb(71,133,207)" stroke="rgb(71,133,207)" stroke-width="1" opacity="1" d="M 984.5 1375 L 985 1380.5 L 984 1380.5 L 984.5 1375 Z " /><path fill="rgb(71,133,207)" stroke="rgb(71,133,207)" stroke-width="1" opacity="1" d="M 959.5 1380 L 960 1383.5 L 959 1383.5 L 959.5 1380 Z " /><path fill="rgb(71,133,207)" stroke="rgb(71,133,207)" stroke-width="1" opacity="1" d="M 969.5 1380 L 970 1383.5 L 969 1383.5 L 969.5 1380 Z " /><path fill="rgb(71,133,207)" stroke="rgb(71,133,207)" stroke-width="1" opacity="1" d="M 1107.5 1380 L 1108 1383.5 L 1107 1383.5 L 1107.5 1380 Z " /><path fill="rgb(71,133,207)" stroke="rgb(71,133,207)" stroke-width="1" opacity="1" d="M 1117.5 1382 L 1118 1385.5 L 1117 1385.5 L 1117.5 1382 Z " /><path fill="rgb(71,133,207)" stroke="rgb(71,133,207)" stroke-width="1" opacity="1" d="M 1014.5 1386 L 1016 1387.5 L 1016 1395 L 1014 1394.5 Q 1016.5 1393 1015 1387.5 L 1014.5 1386 Z " /><path fill="rgb(71,133,207)" stroke="rgb(71,133,207)" stroke-width="1" opacity="1" d="M 1065.5 1386 L 1065 1387.5 L 1064.5 1394 L 1064 1387.5 L 1065.5 1386 Z " /><path fill="rgb(71,133,207)" stroke="rgb(71,133,207)" stroke-width="1" opacity="1" d="M 1116.5 1389 L 1117 1391.5 L 1116 1391.5 L 1116.5 1389 Z " /><path fill="rgb(71,133,207)" stroke="rgb(71,133,207)" stroke-width="1" opacity="1" d="M 976.5 1405 L 977.5 1407 L 976.5 1405 Z " /><path fill="rgb(71,133,207)" stroke="rgb(71,133,207)" stroke-width="1" opacity="1" d="M 1111.5 1405 L 1112 1406.5 L 1107.5 1414 L 1108 1412.5 L 1111.5 1405 Z " /><path fill="rgb(71,133,207)" stroke="rgb(71,133,207)" stroke-width="1" opacity="1" d="M 1692.5 1410 L 1690.5 1413 L 1687.5 1415 L 1689.5 1412 L 1692.5 1410 Z " /><path fill="rgb(71,133,207)" stroke="rgb(71,133,207)" stroke-width="1" opacity="1" d="M 981.5 1413 L 982.5 1415 L 981.5 1413 Z " /><path fill="rgb(71,133,207)" stroke="rgb(71,133,207)" stroke-width="1" opacity="1" d="M 1095.5 1413 L 1094.5 1415 L 1095.5 1413 Z " /><path fill="rgb(71,133,207)" stroke="rgb(71,133,207)" stroke-width="1" opacity="1" d="M 1106.5 1415 L 1105.5 1417 L 1106.5 1415 Z " /><path fill="rgb(71,133,207)" stroke="rgb(71,133,207)" stroke-width="1" opacity="1" d="M 1685.5 1415 L 1684.5 1417 L 1685.5 1415 Z " /><path fill="rgb(71,133,207)" stroke="rgb(71,133,207)" stroke-width="1" opacity="1" d="M 984.5 1417 L 987.5 1421 L 984.5 1417 Z " /><path fill="rgb(71,133,207)" stroke="rgb(71,133,207)" stroke-width="1" opacity="1" d="M 1092.5 1417 L 1089.5 1421 L 1092.5 1417 Z " /><path fill="rgb(71,133,207)" stroke="rgb(71,133,207)" stroke-width="1" opacity="1" d="M 1682.5 1417 L 1681.5 1419 L 1676.5 1422 L 1677.5 1420 L 1682.5 1417 Z " /><path fill="rgb(71,133,207)" stroke="rgb(71,133,207)" stroke-width="1" opacity="1" d="M 1104.5 1418 L 1103.5 1420 L 1104.5 1418 Z " /><path fill="rgb(71,133,207)" stroke="rgb(71,133,207)" stroke-width="1" opacity="1" d="M 973.5 1419 L 974.5 1421 L 973.5 1419 Z " /><path fill="rgb(71,133,207)" stroke="rgb(71,133,207)" stroke-width="1" opacity="1" d="M 1102.5 1421 L 1099.5 1425 L 1102.5 1421 Z " /><path fill="rgb(71,133,207)" stroke="rgb(71,133,207)" stroke-width="1" opacity="1" d="M 1672.5 1423 L 1671.5 1425 L 1656.5 1432 L 1656.5 1431 L 1672.5 1423 Z " /><path fill="rgb(71,133,207)" stroke="rgb(71,133,207)" stroke-width="1" opacity="1" d="M 977.5 1424 L 978.5 1426 L 977.5 1424 Z " /><path fill="rgb(71,133,207)" stroke="rgb(71,133,207)" stroke-width="1" opacity="1" d="M 991.5 1424 L 994.5 1428 L 991.5 1424 Z " /><path fill="rgb(71,133,207)" stroke="rgb(71,133,207)" stroke-width="1" opacity="1" d="M 1085.5 1424 L 1082.5 1428 L 1085.5 1424 Z " /><path fill="rgb(71,133,207)" stroke="rgb(71,133,207)" stroke-width="1" opacity="1" d="M 1098.5 1426 L 1096 1429.5 L 1096.5 1431 L 1095 1429.5 L 1098.5 1426 Z " /><path fill="rgb(71,133,207)" stroke="rgb(71,133,207)" stroke-width="1" opacity="1" d="M 997.5 1429 L 998.5 1431 L 997.5 1429 Z " /><path fill="rgb(71,133,207)" stroke="rgb(71,133,207)" stroke-width="1" opacity="1" d="M 1079.5 1429 L 1078.5 1431 L 1079.5 1429 Z " /><path fill="rgb(71,133,207)" stroke="rgb(71,133,207)" stroke-width="1" opacity="1" d="M 1100.5 1432 L 1106 1434.5 L 1104.5 1435 L 1100.5 1433 L 1100.5 1432 Z " /><path fill="rgb(71,133,207)" stroke="rgb(71,133,207)" stroke-width="1" opacity="1" d="M 1653.5 1432 L 1655 1432.5 L 1641.5 1438 L 1641.5 1437 L 1653.5 1432 Z " /><path fill="rgb(71,133,207)" stroke="rgb(71,133,207)" stroke-width="1" opacity="1" d="M 986.5 1433 L 987.5 1435 L 986.5 1433 Z " /><path fill="rgb(71,133,207)" stroke="rgb(71,133,207)" stroke-width="1" opacity="1" d="M 1107.5 1435 L 1116 1438.5 L 1114.5 1439 L 1107.5 1436 L 1107.5 1435 Z " /><path fill="rgb(71,133,207)" stroke="rgb(71,133,207)" stroke-width="1" opacity="1" d="M 991.5 1437 L 992.5 1439 L 991.5 1437 Z " /><path fill="rgb(71,133,207)" stroke="rgb(71,133,207)" stroke-width="1" opacity="1" d="M 1117.5 1439 L 1129 1442.5 L 1126.5 1443 L 1117.5 1440 L 1117.5 1439 Z " /><path fill="rgb(71,133,207)" stroke="rgb(71,133,207)" stroke-width="1" opacity="1" d="M 1634.5 1439 L 1637 1439.5 L 1625.5 1443 L 1625.5 1442 L 1634.5 1439 Z " /><path fill="rgb(71,133,207)" stroke="rgb(71,133,207)" stroke-width="1" opacity="1" d="M 1028.5 1442 L 1032 1442.5 L 1028.5 1443 L 1028.5 1442 Z " /><path fill="rgb(71,133,207)" stroke="rgb(71,133,207)" stroke-width="1" opacity="1" d="M 1045.5 1442 L 1049 1442.5 L 1045.5 1443 L 1045.5 1442 Z " /><path fill="rgb(71,133,207)" stroke="rgb(71,133,207)" stroke-width="1" opacity="1" d="M 1621.5 1443 L 1624 1443.5 L 1621.5 1444 L 1621.5 1443 Z " /><path fill="rgb(71,133,207)" stroke="rgb(71,133,207)" stroke-width="1" opacity="1" d="M 1133.5 1444 L 1162 1449.5 L 1156.5 1450 L 1133.5 1445 L 1133.5 1444 Z " /><path fill="rgb(71,133,207)" stroke="rgb(71,133,207)" stroke-width="1" opacity="1" d="M 1616.5 1444 L 1620 1444.5 L 1594.5 1450 L 1580.5 1451 L 1580.5 1450 L 1594.5 1449 L 1616.5 1444 Z " /><path fill="rgb(71,133,207)" stroke="rgb(71,133,207)" stroke-width="1" opacity="1" d="M 1163.5 1450 L 1169 1450.5 L 1163.5 1451 L 1163.5 1450 Z " /><path fill="rgb(71,133,207)" stroke="rgb(71,133,207)" stroke-width="1" opacity="1" d="M 1171.5 1451 L 1177 1451.5 L 1171.5 1452 L 1171.5 1451 Z " /><path fill="rgb(71,133,207)" stroke="rgb(71,133,207)" stroke-width="1" opacity="1" d="M 1569.5 1451 L 1577 1451.5 L 1569.5 1452 L 1569.5 1451 Z " /><path fill="rgb(71,133,207)" stroke="rgb(71,133,207)" stroke-width="1" opacity="1" d="M 1028.5 1452 L 1032 1452.5 L 1028.5 1453 L 1028.5 1452 Z " /><path fill="rgb(71,133,207)" stroke="rgb(71,133,207)" stroke-width="1" opacity="1" d="M 1045.5 1452 L 1049 1452.5 L 1045.5 1453 L 1045.5 1452 Z " /><path fill="rgb(71,133,207)" stroke="rgb(71,133,207)" stroke-width="1" opacity="1" d="M 1182.5 1452 L 1562 1452.5 L 1182.5 1453 L 1182.5 1452 Z " /><path fill="rgb(71,133,207)" stroke="rgb(71,133,207)" stroke-width="1" opacity="1" d="M 509.5 1530 L 516 1530.5 L 509.5 1531 L 509.5 1530 Z " /><path fill="rgb(71,133,207)" stroke="rgb(71,133,207)" stroke-width="1" opacity="1" d="M 518.5 1530 L 527 1530.5 L 518.5 1531 L 518.5 1530 Z " /><path fill="rgb(71,133,207)" stroke="rgb(71,133,207)" stroke-width="1" opacity="1" d="M 531.5 1531 L 535 1531.5 L 531.5 1532 L 531.5 1531 Z " /><path fill="rgb(71,133,207)" stroke="rgb(71,133,207)" stroke-width="1" opacity="1" d="M 158.5 1532 L 159 1627.5 L 158 1627.5 L 158.5 1532 Z " /><path fill="rgb(71,133,207)" stroke="rgb(71,133,207)" stroke-width="1" opacity="1" d="M 233.5 1532 L 234 1533.5 L 232.5 1536 L 232 1534.5 L 233.5 1532 Z " /><path fill="rgb(71,133,207)" stroke="rgb(71,133,207)" stroke-width="1" opacity="1" d="M 613.5 1532 L 614 1550 L 644.5 1550 L 646 1551.5 L 645.5 1628 L 645 1551 L 614.5 1551 L 613 1549.5 L 613.5 1532 Z " /><path fill="rgb(71,133,207)" stroke="rgb(71,133,207)" stroke-width="1" opacity="1" d="M 701.5 1532 L 702 1549.5 L 700.5 1551 L 670 1551 L 669.5 1628 L 669 1550 L 701 1550 L 701.5 1532 Z " /><path fill="rgb(71,133,207)" stroke="rgb(71,133,207)" stroke-width="1" opacity="1" d="M 827.5 1532 L 828 1549.5 L 826.5 1551 L 785.5 1551 L 785.5 1550 L 827 1550 L 827.5 1532 Z " /><path fill="rgb(71,133,207)" stroke="rgb(71,133,207)" stroke-width="1" opacity="1" d="M 940.5 1532 L 945 1532.5 L 940.5 1533 L 940.5 1532 Z " /><path fill="rgb(71,133,207)" stroke="rgb(71,133,207)" stroke-width="1" opacity="1" d="M 949.5 1533 L 952 1533.5 L 949.5 1534 L 949.5 1533 Z " /><path fill="rgb(71,133,207)" stroke="rgb(71,133,207)" stroke-width="1" opacity="1" d="M 495.5 1534 L 494.5 1536 L 495.5 1534 Z " /><path fill="rgb(71,133,207)" stroke="rgb(71,133,207)" stroke-width="1" opacity="1" d="M 550.5 1535 L 551 1555 L 549 1554.5 L 550 1553.5 L 550.5 1535 Z " /><path fill="rgb(71,133,207)" stroke="rgb(71,133,207)" stroke-width="1" opacity="1" d="M 957.5 1535 L 958.5 1537 L 957.5 1535 Z " /><path fill="rgb(71,133,207)" stroke="rgb(71,133,207)" stroke-width="1" opacity="1" d="M 492.5 1536 L 491.5 1538 L 492.5 1536 Z " /><path fill="rgb(71,133,207)" stroke="rgb(71,133,207)" stroke-width="1" opacity="1" d="M 962.5 1538 L 966.5 1543 L 962.5 1538 Z " /><path fill="rgb(71,133,207)" stroke="rgb(71,133,207)" stroke-width="1" opacity="1" d="M 230.5 1539 L 231 1540.5 L 229.5 1543 L 229 1541.5 L 230.5 1539 Z " /><path fill="rgb(71,133,207)" stroke="rgb(71,133,207)" stroke-width="1" opacity="1" d="M 486.5 1542 L 485.5 1544 L 486.5 1542 Z " /><path fill="rgb(71,133,207)" stroke="rgb(71,133,207)" stroke-width="1" opacity="1" d="M 967.5 1544 L 969 1546.5 L 968 1546.5 L 967.5 1544 Z " /><path fill="rgb(71,133,207)" stroke="rgb(71,133,207)" stroke-width="1" opacity="1" d="M 227.5 1546 L 228 1547.5 L 226.5 1550 L 226 1548.5 L 227.5 1546 Z " /><path fill="rgb(71,133,207)" stroke="rgb(71,133,207)" stroke-width="1" opacity="1" d="M 921 1549 L 935 1549.5 L 922 1550 L 922 1574 L 936.5 1574 L 936.5 1575 L 921 1575 L 921 1549 Z " /><path fill="rgb(71,133,207)" stroke="rgb(71,133,207)" stroke-width="1" opacity="1" d="M 197.5 1550 L 199 1553.5 L 198 1553.5 L 197.5 1550 Z " /><path fill="rgb(71,133,207)" stroke="rgb(71,133,207)" stroke-width="1" opacity="1" d="M 970.5 1551 L 971 1553.5 L 970 1553.5 L 970.5 1551 Z " /><path fill="rgb(71,133,207)" stroke="rgb(71,133,207)" stroke-width="1" opacity="1" d="M 943.5 1552 L 944.5 1554 L 943.5 1552 Z " /><path fill="rgb(71,133,207)" stroke="rgb(71,133,207)" stroke-width="1" opacity="1" d="M 224.5 1553 L 225 1554.5 L 223.5 1557 L 223 1555.5 L 224.5 1553 Z " /><path fill="rgb(71,133,207)" stroke="rgb(71,133,207)" stroke-width="1" opacity="1" d="M 481.5 1553 L 482 1557.5 L 481 1557.5 L 481.5 1553 Z " /><path fill="rgb(71,133,207)" stroke="rgb(71,133,207)" stroke-width="1" opacity="1" d="M 374.5 1554 L 374 1555.5 L 373.5 1557 L 373 1555.5 L 374.5 1554 Z " /><path fill="rgb(71,133,207)" stroke="rgb(71,133,207)" stroke-width="1" opacity="1" d="M 181.5 1557 L 184 1561.5 L 183 1561.5 L 182.5 1560 L 181.5 1628 L 181.5 1557 Z " /><path fill="rgb(71,133,207)" stroke="rgb(71,133,207)" stroke-width="1" opacity="1" d="M 241.5 1557 L 242 1558.5 L 240 1559.5 L 241.5 1557 Z " /><path fill="rgb(71,133,207)" stroke="rgb(71,133,207)" stroke-width="1" opacity="1" d="M 503.5 1558 L 504 1560.5 L 503 1560.5 L 503.5 1558 Z " /><path fill="rgb(71,133,207)" stroke="rgb(71,133,207)" stroke-width="1" opacity="1" d="M 946.5 1558 L 947 1565.5 L 946 1565.5 L 946.5 1558 Z " /><path fill="rgb(71,133,207)" stroke="rgb(71,133,207)" stroke-width="1" opacity="1" d="M 221.5 1560 L 222 1561.5 L 220.5 1564 L 220 1562.5 L 221.5 1560 Z " /><path fill="rgb(71,133,207)" stroke="rgb(71,133,207)" stroke-width="1" opacity="1" d="M 481.5 1561 L 482 1565.5 L 481 1565.5 L 481.5 1561 Z " /><path fill="rgb(71,133,207)" stroke="rgb(71,133,207)" stroke-width="1" opacity="1" d="M 504.5 1562 L 509 1565.5 L 507.5 1566 L 504.5 1562 Z " /><path fill="rgb(71,133,207)" stroke="rgb(71,133,207)" stroke-width="1" opacity="1" d="M 185.5 1565 L 187 1568.5 L 186 1568.5 L 185.5 1565 Z " /><path fill="rgb(71,133,207)" stroke="rgb(71,133,207)" stroke-width="1" opacity="1" d="M 218.5 1567 L 219 1568.5 L 217.5 1571 L 217 1569.5 L 218.5 1567 Z " /><path fill="rgb(71,133,207)" stroke="rgb(71,133,207)" stroke-width="1" opacity="1" d="M 513.5 1567 L 516 1567.5 L 513.5 1568 L 513.5 1567 Z " /><path fill="rgb(71,133,207)" stroke="rgb(71,133,207)" stroke-width="1" opacity="1" d="M 785.5 1568 L 825 1568.5 L 785.5 1569 L 785.5 1568 Z " /><path fill="rgb(71,133,207)" stroke="rgb(71,133,207)" stroke-width="1" opacity="1" d="M 522.5 1569 L 525 1569.5 L 522.5 1570 L 522.5 1569 Z " /><path fill="rgb(71,133,207)" stroke="rgb(71,133,207)" stroke-width="1" opacity="1" d="M 944.5 1570 L 943.5 1572 L 944.5 1570 Z " /><path fill="rgb(71,133,207)" stroke="rgb(71,133,207)" stroke-width="1" opacity="1" d="M 188.5 1572 L 190 1575.5 L 189 1575.5 L 188.5 1572 Z " /><path fill="rgb(71,133,207)" stroke="rgb(71,133,207)" stroke-width="1" opacity="1" d="M 941.5 1572 L 940.5 1574 L 939 1573.5 L 941.5 1572 Z " /><path fill="rgb(71,133,207)" stroke="rgb(71,133,207)" stroke-width="1" opacity="1" d="M 967.5 1572 L 966.5 1574 L 967.5 1572 Z " /><path fill="rgb(71,133,207)" stroke="rgb(71,133,207)" stroke-width="1" opacity="1" d="M 484.5 1573 L 485.5 1575 L 484.5 1573 Z " /><path fill="rgb(71,133,207)" stroke="rgb(71,133,207)" stroke-width="1" opacity="1" d="M 215.5 1574 L 216 1575.5 L 214.5 1578 L 214 1576.5 L 215.5 1574 Z " /><path fill="rgb(71,133,207)" stroke="rgb(71,133,207)" stroke-width="1" opacity="1" d="M 541.5 1574 L 547 1577.5 L 545.5 1577 Q 541.5 1576.5 541.5 1574 Z " /><path fill="rgb(71,133,207)" stroke="rgb(71,133,207)" stroke-width="1" opacity="1" d="M 486.5 1576 L 489.5 1580 L 486.5 1576 Z " /><path fill="rgb(71,133,207)" stroke="rgb(71,133,207)" stroke-width="1" opacity="1" d="M 962.5 1577 L 961.5 1579 L 962.5 1577 Z " /><path fill="rgb(71,133,207)" stroke="rgb(71,133,207)" stroke-width="1" opacity="1" d="M 549.5 1579 L 550.5 1581 L 549.5 1579 Z " /><path fill="rgb(71,133,207)" stroke="rgb(71,133,207)" stroke-width="1" opacity="1" d="M 959.5 1579 L 958.5 1581 L 955.5 1582 L 955.5 1581 L 959.5 1579 Z " /><path fill="rgb(71,133,207)" stroke="rgb(71,133,207)" stroke-width="1" opacity="1" d="M 491.5 1580 L 492.5 1582 L 491.5 1580 Z " /><path fill="rgb(71,133,207)" stroke="rgb(71,133,207)" stroke-width="1" opacity="1" d="M 553.5 1585 L 555 1587.5 L 554 1587.5 L 553.5 1585 Z " /><path fill="rgb(71,133,207)" stroke="rgb(71,133,207)" stroke-width="1" opacity="1" d="M 959.5 1586 L 964.5 1592 L 959.5 1586 Z " /><path fill="rgb(71,133,207)" stroke="rgb(71,133,207)" stroke-width="1" opacity="1" d="M 228.5 1587 L 229 1588.5 L 227.5 1591 L 227 1589.5 L 228.5 1587 Z " /><path fill="rgb(71,133,207)" stroke="rgb(71,133,207)" stroke-width="1" opacity="1" d="M 511.5 1588 L 514 1588.5 L 511.5 1589 L 511.5 1588 Z " /><path fill="rgb(71,133,207)" stroke="rgb(71,133,207)" stroke-width="1" opacity="1" d="M 361.5 1590 L 362 1592 L 386.5 1592 L 387.5 1591 L 388 1593 L 361.5 1593 L 361.5 1590 Z " /><path fill="rgb(71,133,207)" stroke="rgb(71,133,207)" stroke-width="1" opacity="1" d="M 520.5 1590 L 523 1590.5 L 520.5 1591 L 520.5 1590 Z " /><path fill="rgb(71,133,207)" stroke="rgb(71,133,207)" stroke-width="1" opacity="1" d="M 921 1591 L 933 1591.5 L 922 1592 L 921.5 1628 L 921 1591 Z " /><path fill="rgb(71,133,207)" stroke="rgb(71,133,207)" stroke-width="1" opacity="1" d="M 527.5 1592 L 528.5 1594 L 527.5 1592 Z " /><path fill="rgb(71,133,207)" stroke="rgb(71,133,207)" stroke-width="1" opacity="1" d="M 937.5 1593 L 938.5 1595 L 937.5 1593 Z " /><path fill="rgb(71,133,207)" stroke="rgb(71,133,207)" stroke-width="1" opacity="1" d="M 965.5 1593 L 966.5 1595 L 965.5 1593 Z " /><path fill="rgb(71,133,207)" stroke="rgb(71,133,207)" stroke-width="1" opacity="1" d="M 225.5 1594 L 226 1595.5 L 224.5 1598 L 224 1596.5 L 225.5 1594 Z " /><path fill="rgb(71,133,207)" stroke="rgb(71,133,207)" stroke-width="1" opacity="1" d="M 530.5 1594 L 531.5 1596 L 530.5 1594 Z " /><path fill="rgb(71,133,207)" stroke="rgb(71,133,207)" stroke-width="1" opacity="1" d="M 556.5 1594 L 557 1602.5 L 556 1602.5 L 556.5 1594 Z " /><path fill="rgb(71,133,207)" stroke="rgb(71,133,207)" stroke-width="1" opacity="1" d="M 941.5 1597 L 942.5 1599 L 941.5 1597 Z " /><path fill="rgb(71,133,207)" stroke="rgb(71,133,207)" stroke-width="1" opacity="1" d="M 943.5 1600 L 944.5 1602 L 943.5 1600 Z " /><path fill="rgb(71,133,207)" stroke="rgb(71,133,207)" stroke-width="1" opacity="1" d="M 222.5 1601 L 223 1602.5 L 221.5 1605 L 221 1603.5 L 222.5 1601 Z " /><path fill="rgb(71,133,207)" stroke="rgb(71,133,207)" stroke-width="1" opacity="1" d="M 532.5 1604 L 533 1605.5 L 531 1606.5 L 532.5 1604 Z " /><path fill="rgb(71,133,207)" stroke="rgb(71,133,207)" stroke-width="1" opacity="1" d="M 203.5 1607 L 204 1609 L 218.5 1609 L 219.5 1608 L 218.5 1610 L 204.5 1610 L 203 1608.5 L 203.5 1607 Z " /><path fill="rgb(71,133,207)" stroke="rgb(71,133,207)" stroke-width="1" opacity="1" d="M 785.5 1609 L 829 1609 L 829 1627.5 L 828 1627.5 L 828 1610 L 785.5 1610 L 785.5 1609 Z " /><path fill="rgb(71,133,207)" stroke="rgb(71,133,207)" stroke-width="1" opacity="1" d="M 355.5 1610 L 393.5 1610 L 395 1611.5 L 393.5 1611 L 355.5 1611 L 354.5 1612 L 355.5 1610 Z " /><path fill="rgb(71,133,207)" stroke="rgb(71,133,207)" stroke-width="1" opacity="1" d="M 507.5 1611 L 511 1611.5 L 507.5 1612 L 507.5 1611 Z " /><path fill="rgb(71,133,207)" stroke="rgb(71,133,207)" stroke-width="1" opacity="1" d="M 551.5 1617 L 546.5 1623 L 551.5 1617 Z " /><path fill="rgb(71,133,207)" stroke="rgb(71,133,207)" stroke-width="1" opacity="1" d="M 952.5 1617 L 958 1627.5 L 956 1626.5 L 952 1618.5 L 952.5 1617 Z " /><path fill="rgb(71,133,207)" stroke="rgb(71,133,207)" stroke-width="1" opacity="1" d="M 544.5 1623 L 543.5 1625 L 544.5 1623 Z " /><path fill="rgb(71,133,207)" stroke="rgb(71,133,207)" stroke-width="1" opacity="1" d="M 502.5 1628 L 505 1628.5 L 502.5 1629 L 502.5 1628 Z " /><path fill="rgb(71,133,207)" stroke="rgb(71,133,207)" stroke-width="1" opacity="1" d="M 530.5 1628 L 533 1628.5 L 530.5 1629 L 530.5 1628 Z " /><path fill="rgb(71,133,207)" stroke="rgb(71,133,207)" stroke-width="1" opacity="1" d="M 509.5 1629 L 527 1629.5 L 509.5 1630 L 509.5 1629 Z " /><path fill="rgb(70,133,207)" stroke="rgb(70,133,207)" stroke-width="1" opacity="1" d="M 1103.5 443 L 1792.5 443 L 1793.5 444 L 1810.5 444 L 1849.5 452 L 1864.5 458 Q 1889.2 468.8 1905 488.5 L 1918 509.5 L 1925 530.5 L 1928 546.5 L 1928 577.5 L 1925 592.5 L 1922 600.5 L 1920 614.5 L 1914 635.5 L 1914 640.5 L 1910 653.5 L 1910 657.5 L 1907 666.5 L 1907 671.5 L 1903 683.5 L 1898 704.5 L 1898 709.5 L 1892 730.5 L 1892 735.5 L 1886 756.5 L 1884 769.5 Q 1880.9 780.9 1873.5 788 Q 1866.5 794.5 1855.5 797 L 1646.5 797 Q 1632.9 794.1 1626 784.5 L 1620 774.5 L 1618 765.5 L 1618 757.5 L 1636 679.5 L 1636 677.5 L 1635.5 676 L 1459 676 L 1454 699.5 L 1454 704.5 L 1451 714.5 L 1451 720.5 L 1444 744.5 L 1442 758.5 L 1436 778.5 L 1436 783.5 L 1429 808.5 L 1429 813.5 L 1424 829.5 L 1424 833.5 L 1421 842.5 L 1421 847.5 L 1415 867.5 L 1415 872.5 L 1413 876.5 L 1411 889.5 L 1407 901.5 L 1407 906.5 L 1402 922.5 L 1402 926.5 L 1399 935.5 L 1399 940.5 L 1393 960.5 L 1393 965.5 L 1386 990.5 L 1386 995.5 L 1381 1011.5 L 1381 1015.5 L 1378 1024.5 L 1378 1029.5 L 1371 1053.5 Q 1369.2 1070.2 1364 1083.5 L 1364 1088.5 L 1359 1104.5 L 1359 1108.5 L 1356 1117.5 L 1356 1122.5 L 1350 1142.5 L 1347 1160.5 L 1342 1176.5 L 1342 1181.5 L 1338 1193.5 L 1338 1197.5 L 1335 1206.5 L 1335 1211.5 L 1328 1239 L 1506.5 1239 L 1507 1236.5 L 1509 1232.5 L 1510 1223.5 L 1517 1197.5 L 1518 1188.5 L 1523 1172.5 L 1525 1158.5 L 1531 1138.5 L 1531 1133.5 L 1534 1121.5 Q 1537.3 1108.8 1546.5 1102 Q 1553.9 1095.9 1565.5 1094 L 1766.5 1094 Q 1784.5 1097 1793 1109.5 Q 1800.8 1118.7 1799 1137.5 L 1791 1169.5 L 1791 1174.5 L 1784 1199.5 L 1784 1204.5 L 1777 1230.5 L 1773 1252.5 L 1770 1261.5 L 1769 1271.5 L 1763 1292.5 L 1760 1310.5 L 1755 1327.5 Q 1737.5 1372 1704.5 1401 Q 1683.3 1419.8 1655.5 1432 L 1624.5 1443 L 1579.5 1451 L 1569.5 1451 L 1568.5 1452 L 1177.5 1452 L 1132.5 1444 L 1119.5 1439 L 1116.5 1439 L 1096 1429.5 Q 1108.8 1417.3 1115 1398.5 L 1118 1385.5 L 1118 1361.5 Q 1112.2 1329.8 1091.5 1313 Q 1075 1297.3 1047 1294 L 1049 1281.5 L 1054 1265.5 L 1054 1260.5 L 1057 1251.5 L 1057 1247.5 L 1061 1234.5 L 1061 1229.5 L 1066 1213.5 L 1070 1190.5 L 1075 1174.5 L 1079 1151.5 L 1083 1139.5 L 1084 1129.5 L 1086 1125.5 L 1091 1104.5 L 1091 1099.5 L 1097 1078.5 L 1097 1073.5 L 1099 1069.5 L 1100 1060.5 L 1105 1043.5 L 1105 1038.5 Q 1110.8 1022.8 1113 1003.5 L 1118 987.5 L 1122 964.5 L 1124 960.5 L 1126 947.5 L 1134 917.5 L 1134 912.5 L 1140 891.5 L 1143 873.5 L 1148 856.5 L 1148 851.5 Q 1153.4 837.9 1155 820.5 L 1161 800.5 L 1164 781.5 L 1169 765.5 L 1170 756.5 L 1183 704.5 L 1186 686.5 L 1191 669.5 L 1191 664.5 L 1198 638.5 L 1199 628.5 L 1204 612.5 L 1207 593.5 L 1212 577.5 L 1213 567.5 L 1215 563.5 L 1216 554.5 L 1220 541.5 L 1220 536.5 L 1225 516.5 L 1107.5 447 L 1103.5 443 Z " /><path fill="rgb(70,133,207)" stroke="rgb(70,133,207)" stroke-width="1" opacity="1" d="M 516.5 1530 L 518.5 1531 L 537.5 1532 L 550 1535 L 550 1553.5 L 548.5 1554 L 535.5 1549 Q 530.7 1550.2 529.5 1548 L 512.5 1548 L 505 1551 Q 502.3 1553.6 503 1560.5 L 507.5 1566 L 540.5 1574 L 552 1582.5 Q 558.3 1590.2 556 1606.5 Q 553.6 1617.6 545.5 1623 L 540.5 1626 L 529.5 1629 L 505.5 1629 L 482 1623 L 482 1603.5 L 483.5 1603 Q 491.5 1608.5 502.5 1611 L 507.5 1612 L 523.5 1612 L 531 1609 L 533 1605.5 L 533 1597.5 L 530.5 1594 L 522.5 1590 L 518.5 1590 L 499.5 1585 Q 491.1 1581.9 486 1575.5 L 482 1567.5 L 481 1558.5 L 483 1548.5 L 490.5 1538 L 502.5 1532 L 515.5 1531 L 516.5 1530 Z " /><path fill="rgb(70,133,207)" stroke="rgb(70,133,207)" stroke-width="1" opacity="1" d="M 159 1532 L 188.5 1532 L 190 1533.5 L 211.5 1583 L 216 1575.5 L 234 1532 L 264.5 1532 L 265 1532.5 L 265 1628 L 242.5 1628 L 242 1627.5 L 242 1557.5 L 241 1557.5 L 218.5 1609 L 204.5 1609 L 204 1607.5 L 181.5 1557 L 181 1628 L 159.5 1628 L 159 1627.5 L 159 1532 Z " /><path fill="rgb(70,133,207)" stroke="rgb(70,133,207)" stroke-width="1" opacity="1" d="M 360 1532 L 388.5 1532 L 389 1533.5 L 424 1628 L 400.5 1628 L 400 1625.5 L 393.5 1610 L 355.5 1610 L 354 1611.5 L 350 1624.5 L 347.5 1628 L 325.5 1628 L 325 1625.5 L 360 1532 Z M 375 1554 L 361 1591 L 362 1593 L 388 1593 L 375 1554 Z " /><path fill="rgb(70,133,207)" stroke="rgb(70,133,207)" stroke-width="1" opacity="1" d="M 614 1532 L 700.5 1532 L 701 1532.5 L 701 1550 L 669 1550 L 669 1627.5 L 668.5 1628 L 646 1628 L 646 1551.5 L 644.5 1550 L 614 1550 L 614 1532 Z " /><path fill="rgb(70,133,207)" stroke="rgb(70,133,207)" stroke-width="1" opacity="1" d="M 761 1532 L 826.5 1532 L 827 1532.5 L 827 1550 L 785 1550 L 785 1569 L 825 1569 L 825 1587 L 785 1587 L 785 1610 L 828 1610 L 828 1628 L 761 1628 L 761 1532 Z " /><path fill="rgb(70,133,207)" stroke="rgb(70,133,207)" stroke-width="1" opacity="1" d="M 897 1532 L 939.5 1532 L 940.5 1533 L 948.5 1533 L 956.5 1535 L 967 1543.5 L 971 1554.5 L 971 1562.5 L 966 1575 L 964 1575 Q 965.1 1577.7 962.5 1577 L 953 1582 Q 951.9 1584.7 954.5 1584 L 965 1592.5 L 983 1627.5 L 958.5 1628 L 945 1601.5 L 937.5 1593 Q 931.6 1589.3 921 1591 L 921 1628 L 897 1628 L 897 1532 Z M 921 1549 L 921 1575 L 937 1575 L 944 1572 L 947 1566 Q 948 1558 945 1554 Q 937 1547 921 1549 Z " /></svg>